# This file uses centimeters as units for non-parametric coordinates.

mtllib kitchen_cabinet_upper_low.mtl
g default
v 0.188156 0.026844 -0.080000
v -0.188156 0.026844 -0.080000
v 0.188156 0.168156 -0.080000
v -0.188156 0.168156 -0.080000
v -0.188156 0.026844 -0.100000
v 0.188156 0.026844 -0.100000
v 0.167814 0.047186 -0.100000
v -0.040000 0.067186 -0.100000
v -0.167814 0.047186 -0.100000
v -0.167814 0.147814 -0.100000
v -0.040000 0.087186 -0.100000
v 0.040000 0.087186 -0.100000
v 0.040000 0.067186 -0.100000
v 0.167814 0.147814 -0.100000
v 0.040000 0.087186 -0.110000
v -0.040000 0.087186 -0.110000
v -0.040000 0.067186 -0.110000
v 0.040000 0.067186 -0.110000
v -0.188156 0.168156 -0.100000
v 0.188156 0.168156 -0.100000
v 0.215000 0.000000 0.110000
v 0.215000 0.000000 -0.100000
v -0.215000 0.000000 0.110000
v -0.215000 0.000000 -0.100000
v 0.215000 0.195000 -0.100000
v 0.215000 0.195000 0.110000
v -0.215000 0.195000 -0.100000
v -0.215000 0.195000 0.110000
v -0.188156 0.026844 -0.100000
v -0.188156 0.168156 -0.100000
v 0.188156 0.168156 -0.100000
v 0.188156 0.026844 -0.100000
v 0.188156 0.026844 0.090000
v -0.188156 0.026844 0.090000
v 0.188156 0.168156 0.090000
v -0.188156 0.168156 0.090000
vt -14.815420 -5.563450
vt 0.000000 -5.563450
vt 0.000000 0.000000
vt -14.815420 0.000000
vt -0.393701 0.000000
vt -0.393701 -5.563450
vt 0.393701 -5.563450
vt 0.393701 0.000000
vt 0.000000 0.393701
vt 0.000000 -0.393701
vt 14.815420 -0.393701
vt 14.815420 0.393701
vt -14.815420 0.393701
vt -14.815420 -0.393701
vt 8.982512 -3.975185
vt 0.800864 -4.762587
vt 14.014550 -4.762587
vt 14.014550 -0.800864
vt 8.982512 -3.187783
vt 5.832906 -3.187783
vt 5.832906 -3.975185
vt 0.800864 -0.800864
vt 14.815420 -5.563450
vt 14.815420 0.000000
vt 8.982512 -0.393701
vt 5.832906 -0.393701
vt 5.832906 -0.787402
vt 8.982512 -0.787402
vt -0.787402 -3.187783
vt -0.787402 -3.975185
vt -0.393701 -3.975185
vt -0.393701 -3.187783
vt 0.787402 -3.975185
vt 0.787402 -3.187783
vt 0.393701 -3.187783
vt 0.393701 -3.975185
vt -5.832906 -0.787402
vt -5.832906 -0.393701
vt -8.982512 -0.393701
vt -8.982512 -0.787402
vt 0.393701 -5.563450
vt 0.393701 0.000000
vt -0.393701 0.000000
vt -0.393701 0.000000
vt -0.393701 -5.563450
vt 0.393701 -5.563450
vt 0.000000 -0.393701
vt 0.000000 0.393701
vt 0.000000 -0.393701
vt 0.000000 -5.563450
vt 0.000000 -5.563450
vt 0.000000 0.000000
vt 0.000000 -5.563450
vt 0.000000 0.000000
vt 0.000000 0.000000
vt 5.832906 -3.975185
vt 8.982512 -3.975185
vt 8.982512 -3.187783
vt 8.982512 -3.187783
vt 5.832906 -3.187783
vt 5.832906 -3.975185
vt 0.000000 0.000000
vt 0.000000 8.267716
vt -16.929131 8.267716
vt -16.929131 0.000000
vt 0.000000 8.267716
vt 0.000000 0.000000
vt 16.929131 0.000000
vt 16.929131 8.267716
vt 0.000000 8.267716
vt 0.000000 7.677166
vt -8.267716 7.677166
vt -8.267716 0.000000
vt -16.929131 0.000000
vt 0.000000 0.000000
vt 0.000000 7.677166
vt 0.000000 7.677166
vt -16.929131 7.677166
vt -16.929131 0.000000
vt 0.000000 7.677166
vt 0.000000 0.000000
vt 8.267716 0.000000
vt 8.267716 7.677166
vt 0.000000 7.677166
vt 15.872280 1.056858
vt 16.929131 0.000000
vt 16.929131 0.000000
vt 16.929131 7.677166
vt 15.872280 6.620308
vt 1.056858 6.620308
vt 1.056858 1.056858
vt 1.056858 7.480315
vt 1.056858 0.000000
vt 15.872280 0.000000
vt 15.872280 7.480315
vt -1.056858 0.000000
vt -1.056858 7.480315
vt -15.872280 7.480315
vt -15.872280 0.000000
vt 1.056858 1.056858
vt 15.872280 1.056858
vt 15.872280 6.620308
vt 15.872280 6.620308
vt 1.056858 6.620308
vt 1.056858 1.056858
vt 0.000000 1.056858
vt 0.000000 6.620308
vt -7.480315 6.620308
vt -7.480315 1.056858
vt 0.000000 6.620308
vt 0.000000 1.056858
vt 7.480315 1.056858
vt 7.480315 6.620308
vt 0.000000 6.620308
vt 0.000000 8.267716
vt 0.000000 0.000000
vt 0.000000 8.267716
vt -16.929131 0.000000
vt 0.000000 0.000000
vt 0.000000 7.677166
vt 0.000000 7.677166
vt -16.929131 0.000000
vt 0.000000 7.677166
vt 0.000000 0.000000
vt 0.000000 7.677166
vt 16.929131 0.000000
vt 16.929131 0.000000
vt 1.056858 1.056858
vt 15.872280 1.056858
vt 15.872280 6.620308
vt 15.872280 6.620308
vt 1.056858 6.620308
vt 1.056858 1.056858
vt 0.000000 6.620308
vt 0.000000 1.056858
vt 0.000000 6.620308
vn 0.000000 0.000000 1.000000
vn 0.000000 0.000000 1.000000
vn 0.000000 0.000000 1.000000
vn 0.000000 0.000000 1.000000
vn 0.000000 0.000000 1.000000
vn 0.000000 0.000000 1.000000
vn -1.000000 0.000000 0.000000
vn -1.000000 0.000000 0.000000
vn -1.000000 0.000000 0.000000
vn -1.000000 0.000000 0.000000
vn -1.000000 0.000000 0.000000
vn -1.000000 0.000000 0.000000
vn 0.000000 1.000000 0.000000
vn 0.000000 1.000000 0.000000
vn 0.000000 1.000000 0.000000
vn 0.000000 1.000000 0.000000
vn 0.000000 1.000000 0.000000
vn 0.000000 1.000000 0.000000
vn 1.000000 0.000000 0.000000
vn 1.000000 0.000000 0.000000
vn 1.000000 0.000000 0.000000
vn 1.000000 0.000000 0.000000
vn 1.000000 0.000000 0.000000
vn 1.000000 0.000000 0.000000
vn 0.000000 -1.000000 0.000000
vn 0.000000 -1.000000 0.000000
vn 0.000000 -1.000000 0.000000
vn 0.000000 -1.000000 0.000000
vn 0.000000 -1.000000 0.000000
vn 0.000000 -1.000000 0.000000
vn 0.000000 0.000000 -1.000000
vn 0.000000 0.000000 -1.000000
vn 0.000000 0.000000 -1.000000
vn 0.000000 0.000000 -1.000000
vn 0.000000 0.000000 -1.000000
vn 0.000000 0.000000 -1.000000
vn 0.000000 0.000000 -1.000000
vn 0.000000 0.000000 -1.000000
vn 0.000000 0.000000 -1.000000
vn 0.000000 0.000000 -1.000000
vn 0.000000 0.000000 -1.000000
vn 0.000000 0.000000 -1.000000
vn 0.000000 0.000000 -1.000000
vn 0.000000 0.000000 -1.000000
vn 0.000000 0.000000 -1.000000
vn 0.000000 0.000000 -1.000000
vn 0.000000 0.000000 -1.000000
vn 0.000000 0.000000 -1.000000
vn 0.000000 0.000000 -1.000000
vn 0.000000 0.000000 -1.000000
vn 0.000000 0.000000 -1.000000
vn 0.000000 0.000000 -1.000000
vn 0.000000 0.000000 -1.000000
vn 0.000000 0.000000 -1.000000
vn 0.000000 0.000000 -1.000000
vn 0.000000 0.000000 -1.000000
vn 0.000000 0.000000 -1.000000
vn 0.000000 0.000000 -1.000000
vn 0.000000 0.000000 -1.000000
vn 0.000000 0.000000 -1.000000
vn 0.000000 0.000000 -1.000000
vn 0.000000 0.000000 -1.000000
vn 0.000000 0.000000 -1.000000
vn 0.000000 0.000000 -1.000000
vn 0.000000 0.000000 -1.000000
vn 0.000000 0.000000 -1.000000
vn 0.000000 0.000000 -1.000000
vn 0.000000 0.000000 -1.000000
vn 0.000000 0.000000 -1.000000
vn 0.000000 0.000000 -1.000000
vn 0.000000 0.000000 -1.000000
vn 0.000000 0.000000 -1.000000
vn 0.000000 0.000000 -1.000000
vn 0.000000 0.000000 -1.000000
vn 0.000000 0.000000 -1.000000
vn 0.000000 0.000000 -1.000000
vn 0.000000 0.000000 -1.000000
vn 0.000000 0.000000 -1.000000
vn 0.000000 1.000000 0.000000
vn 0.000000 1.000000 0.000000
vn 0.000000 1.000000 0.000000
vn 0.000000 1.000000 0.000000
vn 0.000000 1.000000 0.000000
vn 0.000000 1.000000 0.000000
vn -1.000000 0.000000 0.000000
vn -1.000000 0.000000 0.000000
vn -1.000000 0.000000 0.000000
vn -1.000000 0.000000 0.000000
vn -1.000000 0.000000 0.000000
vn -1.000000 0.000000 0.000000
vn 0.000000 0.000000 -1.000000
vn 0.000000 0.000000 -1.000000
vn 0.000000 0.000000 -1.000000
vn 0.000000 0.000000 -1.000000
vn 0.000000 0.000000 -1.000000
vn 0.000000 0.000000 -1.000000
vn 1.000000 0.000000 0.000000
vn 1.000000 0.000000 0.000000
vn 1.000000 0.000000 0.000000
vn 1.000000 0.000000 0.000000
vn 1.000000 0.000000 0.000000
vn 1.000000 0.000000 0.000000
vn 0.000000 -1.000000 0.000000
vn 0.000000 -1.000000 0.000000
vn 0.000000 -1.000000 0.000000
vn 0.000000 -1.000000 0.000000
vn 0.000000 -1.000000 0.000000
vn 0.000000 -1.000000 0.000000
vn 0.000000 -1.000000 0.000000
vn 0.000000 -1.000000 0.000000
vn 0.000000 -1.000000 0.000000
vn 0.000000 -1.000000 0.000000
vn 0.000000 -1.000000 0.000000
vn 0.000000 -1.000000 0.000000
vn 0.000000 1.000000 0.000000
vn 0.000000 1.000000 0.000000
vn 0.000000 1.000000 0.000000
vn 0.000000 1.000000 0.000000
vn 0.000000 1.000000 0.000000
vn 0.000000 1.000000 0.000000
vn 1.000000 0.000000 0.000000
vn 1.000000 0.000000 0.000000
vn 1.000000 0.000000 0.000000
vn 1.000000 0.000000 0.000000
vn 1.000000 0.000000 0.000000
vn 1.000000 0.000000 0.000000
vn 0.000000 0.000000 1.000000
vn 0.000000 0.000000 1.000000
vn 0.000000 0.000000 1.000000
vn 0.000000 0.000000 1.000000
vn 0.000000 0.000000 1.000000
vn 0.000000 0.000000 1.000000
vn -1.000000 0.000000 0.000000
vn -1.000000 0.000000 0.000000
vn -1.000000 0.000000 0.000000
vn -1.000000 0.000000 0.000000
vn -1.000000 0.000000 0.000000
vn -1.000000 0.000000 0.000000
vn 0.000000 0.000000 -1.000000
vn 0.000000 0.000000 -1.000000
vn 0.000000 0.000000 -1.000000
vn 0.000000 0.000000 -1.000000
vn 0.000000 0.000000 -1.000000
vn 0.000000 0.000000 -1.000000
vn 0.000000 0.000000 -1.000000
vn 0.000000 0.000000 -1.000000
vn 0.000000 0.000000 -1.000000
vn 0.000000 0.000000 -1.000000
vn 0.000000 0.000000 -1.000000
vn 0.000000 0.000000 -1.000000
vn 0.000000 0.000000 -1.000000
vn 0.000000 0.000000 -1.000000
vn 0.000000 0.000000 -1.000000
vn 0.000000 0.000000 -1.000000
vn 0.000000 0.000000 -1.000000
vn 0.000000 0.000000 -1.000000
vn 0.000000 0.000000 -1.000000
vn 0.000000 0.000000 -1.000000
vn 0.000000 0.000000 -1.000000
vn 0.000000 0.000000 -1.000000
vn 0.000000 0.000000 -1.000000
vn 0.000000 0.000000 -1.000000
vn 0.000000 1.000000 0.000000
vn 0.000000 1.000000 0.000000
vn 0.000000 1.000000 0.000000
vn 0.000000 1.000000 0.000000
vn 0.000000 1.000000 0.000000
vn 0.000000 1.000000 0.000000
vn 0.000000 -1.000000 0.000000
vn 0.000000 -1.000000 0.000000
vn 0.000000 -1.000000 0.000000
vn 0.000000 -1.000000 0.000000
vn 0.000000 -1.000000 0.000000
vn 0.000000 -1.000000 0.000000
vn 0.000000 0.000000 -1.000000
vn 0.000000 0.000000 -1.000000
vn 0.000000 0.000000 -1.000000
vn 0.000000 0.000000 -1.000000
vn 0.000000 0.000000 -1.000000
vn 0.000000 0.000000 -1.000000
vn 1.000000 0.000000 0.000000
vn 1.000000 0.000000 0.000000
vn 1.000000 0.000000 0.000000
vn 1.000000 0.000000 0.000000
vn 1.000000 0.000000 0.000000
vn 1.000000 0.000000 0.000000
vn -1.000000 0.000000 0.000000
vn -1.000000 0.000000 0.000000
vn -1.000000 0.000000 0.000000
vn -1.000000 0.000000 0.000000
vn -1.000000 0.000000 0.000000
vn -1.000000 0.000000 0.000000
vn 0.000000 -1.000000 0.000000
vn 0.000000 -1.000000 0.000000
vn 0.000000 -1.000000 0.000000
vn 0.000000 -1.000000 0.000000
vn 0.000000 -1.000000 0.000000
vn 0.000000 -1.000000 0.000000
vn 0.000000 1.000000 0.000000
vn 0.000000 1.000000 0.000000
vn 0.000000 1.000000 0.000000
vn 0.000000 1.000000 0.000000
vn 0.000000 1.000000 0.000000
vn 0.000000 1.000000 0.000000
vn 1.000000 0.000000 0.000000
vn 1.000000 0.000000 0.000000
vn 1.000000 0.000000 0.000000
vn 1.000000 0.000000 0.000000
vn 1.000000 0.000000 0.000000
vn 1.000000 0.000000 0.000000
vn 0.000000 0.000000 1.000000
vn 0.000000 0.000000 1.000000
vn 0.000000 0.000000 1.000000
vn 0.000000 0.000000 1.000000
vn 0.000000 0.000000 1.000000
vn 0.000000 0.000000 1.000000
vn -1.000000 0.000000 0.000000
vn -1.000000 0.000000 0.000000
vn -1.000000 0.000000 0.000000
vn -1.000000 0.000000 0.000000
vn -1.000000 0.000000 0.000000
vn -1.000000 0.000000 0.000000
vn 0.000000 0.000000 -1.000000
vn 0.000000 0.000000 -1.000000
vn 0.000000 0.000000 -1.000000
vn 0.000000 0.000000 -1.000000
vn 0.000000 0.000000 -1.000000
vn 0.000000 0.000000 -1.000000
vn 0.000000 0.000000 -1.000000
vn 0.000000 0.000000 -1.000000
vn 0.000000 0.000000 -1.000000
vn 0.000000 0.000000 -1.000000
vn 0.000000 0.000000 -1.000000
vn 0.000000 0.000000 -1.000000
vn 0.000000 0.000000 -1.000000
vn 0.000000 0.000000 -1.000000
vn 0.000000 0.000000 -1.000000
vn 0.000000 0.000000 -1.000000
vn 0.000000 0.000000 -1.000000
vn 0.000000 0.000000 -1.000000
vn 0.000000 0.000000 -1.000000
vn 0.000000 0.000000 -1.000000
vn 0.000000 0.000000 -1.000000
vn 0.000000 0.000000 -1.000000
vn 0.000000 0.000000 -1.000000
vn 0.000000 0.000000 -1.000000
vn 0.000000 1.000000 0.000000
vn 0.000000 1.000000 0.000000
vn 0.000000 1.000000 0.000000
vn 0.000000 1.000000 0.000000
vn 0.000000 1.000000 0.000000
vn 0.000000 1.000000 0.000000
vn 0.000000 -1.000000 0.000000
vn 0.000000 -1.000000 0.000000
vn 0.000000 -1.000000 0.000000
vn 0.000000 -1.000000 0.000000
vn 0.000000 -1.000000 0.000000
vn 0.000000 -1.000000 0.000000
vn 0.000000 0.000000 -1.000000
vn 0.000000 0.000000 -1.000000
vn 0.000000 0.000000 -1.000000
vn 0.000000 0.000000 -1.000000
vn 0.000000 0.000000 -1.000000
vn 0.000000 0.000000 -1.000000
vn 1.000000 0.000000 0.000000
vn 1.000000 0.000000 0.000000
vn 1.000000 0.000000 0.000000
vn 1.000000 0.000000 0.000000
vn 1.000000 0.000000 0.000000
vn 1.000000 0.000000 0.000000
vn -1.000000 0.000000 0.000000
vn -1.000000 0.000000 0.000000
vn -1.000000 0.000000 0.000000
vn -1.000000 0.000000 0.000000
vn -1.000000 0.000000 0.000000
vn -1.000000 0.000000 0.000000
s off
g kitchenCabinetUpperLow:door1
usemtl kitchenCabinetUpperLow:wood
f 2/1/1 1/2/2 3/3/3
f 3/3/4 4/4/5 2/1/6
f 19/5/7 5/6/8 2/7/9
f 2/7/10 4/8/11 19/5/12
f 3/9/13 20/10/14 19/11/15
f 19/11/16 4/12/17 3/9/18
f 6/41/19 20/42/20 3/43/21
f 3/44/22 1/45/23 6/46/24
f 6/47/25 1/48/26 2/13/27
f 2/13/28 5/14/29 6/49/30
f 8/15/31 7/16/32 9/17/33
f 9/17/34 10/18/35 8/15/36
f 10/18/37 11/19/38 8/15/39
f 10/18/40 12/20/41 11/19/42
f 7/16/43 8/15/44 13/21/45
f 13/21/46 14/22/47 7/16/48
f 13/21/49 12/20/50 14/22/51
f 12/20/52 10/18/53 14/22/54
usemtl kitchenCabinetUpperLow:woodDark
f 9/17/55 6/50/56 5/23/57
f 5/23/58 19/24/59 9/17/60
f 19/24/61 10/18/62 9/17/63
f 19/24/64 14/22/65 10/18/66
f 6/51/67 9/17/68 7/16/69
f 7/16/70 20/52/71 6/53/72
f 7/16/73 14/22/74 20/54/75
f 14/22/76 19/24/77 20/55/78
usemtl kitchenCabinetUpperLow:metal
f 11/25/79 12/26/80 15/27/81
f 15/27/82 16/28/83 11/25/84
f 16/29/85 17/30/86 8/31/87
f 8/31/88 11/32/89 16/29/90
f 18/56/91 17/57/92 16/58/93
f 16/59/94 15/60/95 18/61/96
f 18/33/97 15/34/98 12/35/99
f 12/35/100 13/36/101 18/33/102
f 18/37/103 13/38/104 8/39/105
f 8/39/106 17/40/107 18/37/108
usemtl kitchenCabinetUpperLow:wood
f 22/62/109 21/63/110 23/64/111
f 23/64/112 24/65/113 22/62/114
f 26/66/115 25/67/116 27/68/117
f 27/68/118 28/69/119 26/70/120
f 22/62/121 25/71/122 26/72/123
f 26/72/124 21/73/125 22/62/126
f 23/74/127 21/75/128 26/76/129
f 26/77/130 28/78/131 23/79/132
f 27/80/133 24/81/134 23/82/135
f 23/82/136 28/83/137 27/84/138
f 29/85/139 22/62/140 24/86/141
f 24/87/142 27/88/143 29/85/144
f 27/88/145 30/89/146 29/85/147
f 27/88/148 31/90/149 30/89/150
f 22/62/151 29/85/152 32/91/153
f 32/91/154 25/71/155 22/62/156
f 32/91/157 31/90/158 25/71/159
f 31/90/160 27/88/161 25/71/162
f 33/92/163 32/93/164 29/94/165
f 29/94/166 34/95/167 33/92/168
f 31/96/169 35/97/170 36/98/171
f 36/98/172 30/99/173 31/96/174
f 33/100/175 34/101/176 36/102/177
f 36/103/178 35/104/179 33/105/180
f 29/106/181 30/107/182 36/108/183
f 36/108/184 34/109/185 29/106/186
f 31/110/187 32/111/188 33/112/189
f 33/112/190 35/113/191 31/114/192
f 22/62/193 21/63/194 23/64/195
f 23/64/196 24/65/197 22/62/198
f 26/115/199 25/116/200 27/68/201
f 27/68/202 28/69/203 26/117/204
f 22/62/205 25/71/206 26/72/207
f 26/72/208 21/73/209 22/62/210
f 23/118/211 21/119/212 26/120/213
f 26/121/214 28/78/215 23/122/216
f 27/123/217 24/124/218 23/82/219
f 23/82/220 28/83/221 27/125/222
f 29/85/223 22/62/224 24/126/225
f 24/127/226 27/88/227 29/85/228
f 27/88/229 30/89/230 29/85/231
f 27/88/232 31/90/233 30/89/234
f 22/62/235 29/85/236 32/91/237
f 32/91/238 25/71/239 22/62/240
f 32/91/241 31/90/242 25/71/243
f 31/90/244 27/88/245 25/71/246
f 33/92/247 32/93/248 29/94/249
f 29/94/250 34/95/251 33/92/252
f 31/96/253 35/97/254 36/98/255
f 36/98/256 30/99/257 31/96/258
f 33/128/259 34/129/260 36/130/261
f 36/131/262 35/132/263 33/133/264
f 29/106/265 30/107/266 36/108/267
f 36/108/268 34/109/269 29/106/270
f 31/134/271 32/135/272 33/112/273
f 33/112/274 35/113/275 31/136/276
