# This file uses centimeters as units for non-parametric coordinates.

mtllib laptop_prop.mtl
g default
v 0.132000 0.000000 0.050063
v 0.132000 0.000000 -0.111233
v -0.132000 0.000000 0.050063
v 0.123200 0.000000 -0.120033
v -0.123200 0.000000 -0.120033
v -0.132000 0.000000 -0.111233
v 0.123200 0.013200 -0.120033
v 0.132000 0.013200 -0.111233
v -0.132000 0.013200 -0.111233
v -0.123200 0.013200 -0.120033
v 0.132000 0.153776 0.104390
v 0.132000 0.148386 0.116439
v 0.123200 0.161809 0.107983
v 0.123200 0.156419 0.120033
v 0.132000 0.013200 0.041507
v -0.114265 0.029389 0.048749
v -0.132000 0.013200 0.041507
v -0.132000 0.153776 0.104390
v -0.114265 0.145620 0.100741
v 0.114265 0.145620 0.100741
v 0.114265 0.029389 0.048749
v -0.123200 0.161809 0.107983
v -0.132000 0.148386 0.116439
v -0.123200 0.156419 0.120033
v 0.106340 0.013200 -0.051775
v 0.052112 0.013200 -0.101041
v 0.003713 0.013200 -0.101041
v 0.003713 0.013200 -0.074574
v -0.045401 0.013200 -0.051775
v -0.058399 0.013200 -0.051775
v -0.045401 0.013200 0.018314
v -0.110311 0.013200 -0.051775
v -0.110311 0.013200 0.018314
v 0.106340 0.013200 0.018314
v -0.058399 0.013200 0.018314
v 0.052112 0.013200 -0.074574
vt 0.000000 0.787402
vt 0.000000 15.219700
vt -23.622049 15.219700
vt -0.787402 0.000000
vt -22.834650 0.000000
vt -23.622049 0.787402
vt -0.556777 0.000000
vt 0.556777 0.000000
vt 0.556777 1.181102
vt -0.556777 1.181102
vt 16.146530 0.000000
vt 17.260090 0.000000
vt 17.260090 1.181102
vt 16.146530 1.181102
vt 0.787402 0.000000
vt 22.834650 0.000000
vt 22.834650 1.181102
vt 0.787402 1.181102
vt -19.588770 4.978031
vt -18.590630 5.609465
vt -19.185949 6.550525
vt -20.184090 5.919090
vt 22.035170 8.567098
vt 0.000000 6.980219
vt 23.622049 6.980219
vt 23.622049 20.759750
vt 22.035170 19.960270
vt 1.586879 19.960270
vt 1.586879 8.567098
vt 0.000000 20.759750
vt 22.834650 21.547150
vt 0.787402 21.547150
vt -0.787402 0.000000
vt -0.787402 1.181102
vt -14.454150 1.181102
vt -15.219700 0.000000
vt -0.787402 0.000000
vt -20.080750 13.759530
vt -21.158899 13.277250
vt 10.256110 -7.565374
vt 9.660790 -8.506433
vt 10.658930 -9.137869
vt 11.254260 -8.196809
vt -0.787402 -13.893060
vt -0.787402 -12.711960
vt -22.834650 -12.711960
vt -22.834650 -13.893060
vt -23.622049 6.214667
vt 0.000000 6.214667
vt 0.000000 20.759750
vt -23.622049 20.759750
vt -0.787402 21.547150
vt -22.834650 21.547150
vt 7.148133 1.699285
vt 2.296001 6.107560
vt 0.787402 -0.000000
vt 22.834650 -0.000000
vt 11.478840 1.699285
vt 11.478840 4.067518
vt 15.873400 6.107560
vt 17.036400 6.107560
vt 15.873400 12.378870
vt 21.681370 6.107560
vt 21.681370 12.378870
vt 2.296001 12.378870
vt 0.000000 14.454150
vt 0.000000 0.787402
vt 23.622049 14.454150
vt 17.036400 12.378870
vt 23.622049 0.787402
vt 7.148133 4.067518
vt 0.787402 1.181102
vt 0.787402 0.000000
vt 15.219700 0.000000
vt 14.454150 1.181102
vt 0.787402 1.181102
vt 20.080750 13.759530
vt 21.158899 13.277250
vt -0.787402 0.000000
vt -0.787402 0.000000
vt 0.787402 1.181102
vt 0.787402 0.000000
vt 0.787402 1.181102
vn 0.000000 -1.000000 0.000000
vn 0.000000 -1.000000 0.000000
vn 0.000000 -1.000000 0.000000
vn 0.000000 -1.000000 0.000000
vn 0.000000 -1.000000 0.000000
vn 0.000000 -1.000000 0.000000
vn 0.000000 -1.000000 0.000000
vn 0.000000 -1.000000 0.000000
vn 0.000000 -1.000000 0.000000
vn 0.000000 -1.000000 0.000000
vn 0.000000 -1.000000 0.000000
vn 0.000000 -1.000000 0.000000
vn 0.707107 0.000000 -0.707107
vn 0.707107 0.000000 -0.707107
vn 0.707107 0.000000 -0.707107
vn 0.707107 0.000000 -0.707107
vn 0.707107 0.000000 -0.707107
vn 0.707107 0.000000 -0.707107
vn -0.707107 0.000000 -0.707107
vn -0.707107 0.000000 -0.707107
vn -0.707107 0.000000 -0.707107
vn -0.707107 0.000000 -0.707107
vn -0.707107 0.000000 -0.707107
vn -0.707107 0.000000 -0.707107
vn 0.000000 0.000000 -1.000000
vn 0.000000 0.000000 -1.000000
vn 0.000000 0.000000 -1.000000
vn 0.000000 0.000000 -1.000000
vn 0.000000 0.000000 -1.000000
vn 0.000000 0.000000 -1.000000
vn 0.707107 0.645471 0.288733
vn 0.707107 0.645471 0.288733
vn 0.707107 0.645471 0.288733
vn 0.707107 0.645471 0.288733
vn 0.707107 0.645471 0.288733
vn 0.707107 0.645471 0.288733
vn 0.000000 0.408330 -0.912834
vn 0.000000 0.408330 -0.912834
vn 0.000000 0.408330 -0.912834
vn 0.000000 0.408330 -0.912834
vn 0.000000 0.408330 -0.912834
vn 0.000000 0.408330 -0.912834
vn 0.000000 0.408330 -0.912834
vn 0.000000 0.408330 -0.912834
vn 0.000000 0.408330 -0.912834
vn 0.000000 0.408330 -0.912834
vn 0.000000 0.408330 -0.912834
vn 0.000000 0.408330 -0.912834
vn 0.000000 0.408330 -0.912834
vn 0.000000 0.408330 -0.912834
vn 0.000000 0.408330 -0.912834
vn 0.000000 0.408330 -0.912834
vn 0.000000 0.408330 -0.912834
vn 0.000000 0.408330 -0.912834
vn 0.000000 0.408330 -0.912834
vn 0.000000 0.408330 -0.912834
vn 0.000000 0.408330 -0.912834
vn 0.000000 0.408330 -0.912834
vn 0.000000 0.408330 -0.912834
vn 0.000000 0.408330 -0.912834
vn 0.000000 0.408330 -0.912834
vn 0.000000 0.408330 -0.912834
vn 0.000000 0.408330 -0.912834
vn 0.000000 0.408330 -0.912834
vn 0.000000 0.408330 -0.912834
vn 0.000000 0.408330 -0.912834
vn 1.000000 0.000000 0.000000
vn 1.000000 0.000000 0.000000
vn 1.000000 0.000000 0.000000
vn 1.000000 0.000000 0.000000
vn 1.000000 0.000000 0.000000
vn 1.000000 0.000000 0.000000
vn 1.000000 0.000000 0.000000
vn 1.000000 0.000000 0.000000
vn 1.000000 0.000000 0.000000
vn 1.000000 0.000000 0.000000
vn 1.000000 0.000000 0.000000
vn 1.000000 0.000000 0.000000
vn -0.707107 0.645471 0.288733
vn -0.707107 0.645471 0.288733
vn -0.707107 0.645471 0.288733
vn -0.707107 0.645471 0.288733
vn -0.707107 0.645471 0.288733
vn -0.707107 0.645471 0.288733
vn 0.000000 0.912834 0.408330
vn 0.000000 0.912834 0.408330
vn 0.000000 0.912834 0.408330
vn 0.000000 0.912834 0.408330
vn 0.000000 0.912834 0.408330
vn 0.000000 0.912834 0.408330
vn 0.000000 -0.408330 0.912834
vn 0.000000 -0.408330 0.912834
vn 0.000000 -0.408330 0.912834
vn 0.000000 -0.408330 0.912834
vn 0.000000 -0.408330 0.912834
vn 0.000000 -0.408330 0.912834
vn 0.000000 -0.408330 0.912834
vn 0.000000 -0.408330 0.912834
vn 0.000000 -0.408330 0.912834
vn 0.000000 -0.408330 0.912834
vn 0.000000 -0.408330 0.912834
vn 0.000000 -0.408330 0.912834
vn 0.000000 1.000000 0.000000
vn 0.000000 1.000000 0.000000
vn 0.000000 1.000000 0.000000
vn 0.000000 1.000000 0.000000
vn 0.000000 1.000000 0.000000
vn 0.000000 1.000000 0.000000
vn 0.000000 1.000000 0.000000
vn 0.000000 1.000000 0.000000
vn 0.000000 1.000000 0.000000
vn 0.000000 1.000000 0.000000
vn 0.000000 1.000000 0.000000
vn 0.000000 1.000000 0.000000
vn 0.000000 1.000000 0.000000
vn 0.000000 1.000000 0.000000
vn 0.000000 1.000000 0.000000
vn 0.000000 1.000000 0.000000
vn 0.000000 1.000000 0.000000
vn 0.000000 1.000000 0.000000
vn 0.000000 1.000000 0.000000
vn 0.000000 1.000000 0.000000
vn 0.000000 1.000000 0.000000
vn 0.000000 1.000000 0.000000
vn 0.000000 1.000000 0.000000
vn 0.000000 1.000000 0.000000
vn 0.000000 1.000000 0.000000
vn 0.000000 1.000000 0.000000
vn 0.000000 1.000000 0.000000
vn 0.000000 1.000000 0.000000
vn 0.000000 1.000000 0.000000
vn 0.000000 1.000000 0.000000
vn 0.000000 1.000000 0.000000
vn 0.000000 1.000000 0.000000
vn 0.000000 1.000000 0.000000
vn 0.000000 1.000000 0.000000
vn 0.000000 1.000000 0.000000
vn 0.000000 1.000000 0.000000
vn 0.000000 1.000000 0.000000
vn 0.000000 1.000000 0.000000
vn 0.000000 1.000000 0.000000
vn 0.000000 1.000000 0.000000
vn 0.000000 1.000000 0.000000
vn 0.000000 1.000000 0.000000
vn 0.000000 1.000000 0.000000
vn 0.000000 1.000000 0.000000
vn 0.000000 1.000000 0.000000
vn 0.000000 1.000000 0.000000
vn 0.000000 1.000000 0.000000
vn 0.000000 1.000000 0.000000
vn 0.000000 1.000000 0.000000
vn 0.000000 1.000000 0.000000
vn 0.000000 1.000000 0.000000
vn 0.000000 1.000000 0.000000
vn 0.000000 1.000000 0.000000
vn 0.000000 1.000000 0.000000
vn 0.000000 1.000000 0.000000
vn 0.000000 1.000000 0.000000
vn 0.000000 1.000000 0.000000
vn 0.000000 1.000000 0.000000
vn 0.000000 1.000000 0.000000
vn 0.000000 1.000000 0.000000
vn 0.000000 1.000000 0.000000
vn 0.000000 1.000000 0.000000
vn 0.000000 1.000000 0.000000
vn 0.000000 1.000000 0.000000
vn 0.000000 1.000000 0.000000
vn 0.000000 1.000000 0.000000
vn -1.000000 0.000000 0.000000
vn -1.000000 0.000000 0.000000
vn -1.000000 0.000000 0.000000
vn -1.000000 0.000000 0.000000
vn -1.000000 0.000000 0.000000
vn -1.000000 0.000000 0.000000
vn -1.000000 0.000000 0.000000
vn -1.000000 0.000000 0.000000
vn -1.000000 0.000000 0.000000
vn -1.000000 0.000000 0.000000
vn -1.000000 0.000000 0.000000
vn -1.000000 0.000000 0.000000
vn 0.000000 0.408330 -0.912834
vn 0.000000 0.408330 -0.912834
vn 0.000000 0.408330 -0.912834
vn 0.000000 0.408330 -0.912834
vn 0.000000 0.408330 -0.912834
vn 0.000000 0.408330 -0.912834
vn 0.000000 1.000000 0.000000
vn 0.000000 1.000000 0.000000
vn 0.000000 1.000000 0.000000
vn 0.000000 1.000000 0.000000
vn 0.000000 1.000000 0.000000
vn 0.000000 1.000000 0.000000
vn 0.000000 1.000000 0.000000
vn 0.000000 1.000000 0.000000
vn 0.000000 1.000000 0.000000
vn 0.000000 1.000000 0.000000
vn 0.000000 1.000000 0.000000
vn 0.000000 1.000000 0.000000
vn 0.000000 1.000000 0.000000
vn 0.000000 1.000000 0.000000
vn 0.000000 1.000000 0.000000
vn 0.000000 1.000000 0.000000
vn 0.000000 1.000000 0.000000
vn 0.000000 1.000000 0.000000
vn 0.000000 -1.000000 0.000000
vn 0.000000 -1.000000 0.000000
vn 0.000000 -1.000000 0.000000
vn 0.000000 -1.000000 0.000000
vn 0.000000 -1.000000 0.000000
vn 0.000000 -1.000000 0.000000
vn 0.000000 -1.000000 0.000000
vn 0.000000 -1.000000 0.000000
vn 0.000000 -1.000000 0.000000
vn 0.000000 -1.000000 0.000000
vn 0.000000 -1.000000 0.000000
vn 0.000000 -1.000000 0.000000
vn 0.707107 0.000000 -0.707107
vn 0.707107 0.000000 -0.707107
vn 0.707107 0.000000 -0.707107
vn 0.707107 0.000000 -0.707107
vn 0.707107 0.000000 -0.707107
vn 0.707107 0.000000 -0.707107
vn -0.707107 0.000000 -0.707107
vn -0.707107 0.000000 -0.707107
vn -0.707107 0.000000 -0.707107
vn -0.707107 0.000000 -0.707107
vn -0.707107 0.000000 -0.707107
vn -0.707107 0.000000 -0.707107
vn 0.000000 0.000000 -1.000000
vn 0.000000 0.000000 -1.000000
vn 0.000000 0.000000 -1.000000
vn 0.000000 0.000000 -1.000000
vn 0.000000 0.000000 -1.000000
vn 0.000000 0.000000 -1.000000
vn 0.707107 0.645471 0.288733
vn 0.707107 0.645471 0.288733
vn 0.707107 0.645471 0.288733
vn 0.707107 0.645471 0.288733
vn 0.707107 0.645471 0.288733
vn 0.707107 0.645471 0.288733
vn 0.000000 0.408330 -0.912834
vn 0.000000 0.408330 -0.912834
vn 0.000000 0.408330 -0.912834
vn 0.000000 0.408330 -0.912834
vn 0.000000 0.408330 -0.912834
vn 0.000000 0.408330 -0.912834
vn 0.000000 0.408330 -0.912834
vn 0.000000 0.408330 -0.912834
vn 0.000000 0.408330 -0.912834
vn 0.000000 0.408330 -0.912834
vn 0.000000 0.408330 -0.912834
vn 0.000000 0.408330 -0.912834
vn 0.000000 0.408330 -0.912834
vn 0.000000 0.408330 -0.912834
vn 0.000000 0.408330 -0.912834
vn 0.000000 0.408330 -0.912834
vn 0.000000 0.408330 -0.912834
vn 0.000000 0.408330 -0.912834
vn 0.000000 0.408330 -0.912834
vn 0.000000 0.408330 -0.912834
vn 0.000000 0.408330 -0.912834
vn 0.000000 0.408330 -0.912834
vn 0.000000 0.408330 -0.912834
vn 0.000000 0.408330 -0.912834
vn 0.000000 0.408330 -0.912834
vn 0.000000 0.408330 -0.912834
vn 0.000000 0.408330 -0.912834
vn 0.000000 0.408330 -0.912834
vn 0.000000 0.408330 -0.912834
vn 0.000000 0.408330 -0.912834
vn 1.000000 0.000000 0.000000
vn 1.000000 0.000000 0.000000
vn 1.000000 0.000000 0.000000
vn 1.000000 0.000000 0.000000
vn 1.000000 0.000000 0.000000
vn 1.000000 0.000000 0.000000
vn 1.000000 0.000000 0.000000
vn 1.000000 0.000000 0.000000
vn 1.000000 0.000000 0.000000
vn 1.000000 0.000000 0.000000
vn 1.000000 0.000000 0.000000
vn 1.000000 0.000000 0.000000
vn -0.707107 0.645471 0.288733
vn -0.707107 0.645471 0.288733
vn -0.707107 0.645471 0.288733
vn -0.707107 0.645471 0.288733
vn -0.707107 0.645471 0.288733
vn -0.707107 0.645471 0.288733
vn 0.000000 0.912834 0.408330
vn 0.000000 0.912834 0.408330
vn 0.000000 0.912834 0.408330
vn 0.000000 0.912834 0.408330
vn 0.000000 0.912834 0.408330
vn 0.000000 0.912834 0.408330
vn 0.000000 -0.408330 0.912834
vn 0.000000 -0.408330 0.912834
vn 0.000000 -0.408330 0.912834
vn 0.000000 -0.408330 0.912834
vn 0.000000 -0.408330 0.912834
vn 0.000000 -0.408330 0.912834
vn 0.000000 -0.408330 0.912834
vn 0.000000 -0.408330 0.912834
vn 0.000000 -0.408330 0.912834
vn 0.000000 -0.408330 0.912834
vn 0.000000 -0.408330 0.912834
vn 0.000000 -0.408330 0.912834
vn 0.000000 1.000000 0.000000
vn 0.000000 1.000000 0.000000
vn 0.000000 1.000000 0.000000
vn 0.000000 1.000000 0.000000
vn 0.000000 1.000000 0.000000
vn 0.000000 1.000000 0.000000
vn 0.000000 1.000000 0.000000
vn 0.000000 1.000000 0.000000
vn 0.000000 1.000000 0.000000
vn 0.000000 1.000000 0.000000
vn 0.000000 1.000000 0.000000
vn 0.000000 1.000000 0.000000
vn 0.000000 1.000000 0.000000
vn 0.000000 1.000000 0.000000
vn 0.000000 1.000000 0.000000
vn 0.000000 1.000000 0.000000
vn 0.000000 1.000000 0.000000
vn 0.000000 1.000000 0.000000
vn 0.000000 1.000000 0.000000
vn 0.000000 1.000000 0.000000
vn 0.000000 1.000000 0.000000
vn 0.000000 1.000000 0.000000
vn 0.000000 1.000000 0.000000
vn 0.000000 1.000000 0.000000
vn 0.000000 1.000000 0.000000
vn 0.000000 1.000000 0.000000
vn 0.000000 1.000000 0.000000
vn 0.000000 1.000000 0.000000
vn 0.000000 1.000000 0.000000
vn 0.000000 1.000000 0.000000
vn 0.000000 1.000000 0.000000
vn 0.000000 1.000000 0.000000
vn 0.000000 1.000000 0.000000
vn 0.000000 1.000000 0.000000
vn 0.000000 1.000000 0.000000
vn 0.000000 1.000000 0.000000
vn 0.000000 1.000000 0.000000
vn 0.000000 1.000000 0.000000
vn 0.000000 1.000000 0.000000
vn 0.000000 1.000000 0.000000
vn 0.000000 1.000000 0.000000
vn 0.000000 1.000000 0.000000
vn 0.000000 1.000000 0.000000
vn 0.000000 1.000000 0.000000
vn 0.000000 1.000000 0.000000
vn 0.000000 1.000000 0.000000
vn 0.000000 1.000000 0.000000
vn 0.000000 1.000000 0.000000
vn 0.000000 1.000000 0.000000
vn 0.000000 1.000000 0.000000
vn 0.000000 1.000000 0.000000
vn 0.000000 1.000000 0.000000
vn 0.000000 1.000000 0.000000
vn 0.000000 1.000000 0.000000
vn 0.000000 1.000000 0.000000
vn 0.000000 1.000000 0.000000
vn 0.000000 1.000000 0.000000
vn 0.000000 1.000000 0.000000
vn 0.000000 1.000000 0.000000
vn 0.000000 1.000000 0.000000
vn 0.000000 1.000000 0.000000
vn 0.000000 1.000000 0.000000
vn 0.000000 1.000000 0.000000
vn 0.000000 1.000000 0.000000
vn 0.000000 1.000000 0.000000
vn 0.000000 1.000000 0.000000
vn -1.000000 0.000000 0.000000
vn -1.000000 0.000000 0.000000
vn -1.000000 0.000000 0.000000
vn -1.000000 0.000000 0.000000
vn -1.000000 0.000000 0.000000
vn -1.000000 0.000000 0.000000
vn -1.000000 0.000000 0.000000
vn -1.000000 0.000000 0.000000
vn -1.000000 0.000000 0.000000
vn -1.000000 0.000000 0.000000
vn -1.000000 0.000000 0.000000
vn -1.000000 0.000000 0.000000
vn 0.000000 0.408330 -0.912834
vn 0.000000 0.408330 -0.912834
vn 0.000000 0.408330 -0.912834
vn 0.000000 0.408330 -0.912834
vn 0.000000 0.408330 -0.912834
vn 0.000000 0.408330 -0.912834
vn 0.000000 1.000000 0.000000
vn 0.000000 1.000000 0.000000
vn 0.000000 1.000000 0.000000
vn 0.000000 1.000000 0.000000
vn 0.000000 1.000000 0.000000
vn 0.000000 1.000000 0.000000
vn 0.000000 1.000000 0.000000
vn 0.000000 1.000000 0.000000
vn 0.000000 1.000000 0.000000
vn 0.000000 1.000000 0.000000
vn 0.000000 1.000000 0.000000
vn 0.000000 1.000000 0.000000
vn 0.000000 1.000000 0.000000
vn 0.000000 1.000000 0.000000
vn 0.000000 1.000000 0.000000
vn 0.000000 1.000000 0.000000
vn 0.000000 1.000000 0.000000
vn 0.000000 1.000000 0.000000
s off
g laptop:laptop
usemtl laptop:metalDark
f 2/1/1 1/2/2 3/3/3
f 3/3/4 4/4/5 2/1/6
f 3/3/7 5/5/8 4/4/9
f 3/3/10 6/6/11 5/5/12
f 2/7/13 4/8/14 7/9/15
f 7/9/16 8/10/17 2/7/18
f 5/11/19 6/12/20 9/13/21
f 9/13/22 10/14/23 5/11/24
f 4/15/25 5/16/26 10/17/27
f 10/17/28 7/18/29 4/15/30
f 12/19/31 11/20/32 13/21/33
f 13/21/34 14/22/35 12/19/36
f 16/23/37 15/24/38 17/25/39
f 17/25/40 18/26/41 16/23/42
f 18/26/43 19/27/44 16/23/45
f 18/26/46 20/28/47 19/27/48
f 15/24/49 16/23/50 21/29/51
f 21/29/52 11/30/53 15/24/54
f 21/29/55 20/28/56 11/30/57
f 20/28/58 18/26/59 11/30/60
f 18/26/61 22/31/62 11/30/63
f 22/31/64 13/32/65 11/30/66
f 2/33/67 8/34/68 15/35/69
f 15/35/70 1/36/71 2/37/72
f 15/35/73 11/38/74 1/36/75
f 11/38/76 12/39/77 1/36/78
f 22/40/79 18/41/80 23/42/81
f 23/42/82 24/43/83 22/40/84
f 14/44/85 13/45/86 22/46/87
f 22/46/88 24/47/89 14/44/90
f 3/48/91 1/49/92 12/50/93
f 12/50/94 23/51/95 3/48/96
f 12/50/97 14/52/98 23/51/99
f 14/52/100 24/53/101 23/51/102
f 26/54/103 25/55/104 7/56/105
f 7/56/106 10/57/107 26/54/108
f 10/57/109 27/58/110 26/54/111
f 10/57/112 28/59/113 27/58/114
f 10/57/115 29/60/116 28/59/117
f 10/57/118 30/61/119 29/60/120
f 30/61/121 31/62/122 29/60/123
f 10/57/124 32/63/125 30/61/126
f 10/57/127 33/64/128 32/63/129
f 7/56/130 25/55/131 34/65/132
f 7/56/133 34/65/134 15/66/135
f 15/66/136 8/67/137 7/56/138
f 34/65/139 17/68/140 15/66/141
f 34/65/142 31/62/143 17/68/144
f 33/64/145 10/57/146 17/68/147
f 31/62/148 35/69/149 17/68/150
f 31/62/151 30/61/152 35/69/153
f 35/69/154 33/64/155 17/68/156
f 10/57/157 9/70/158 17/68/159
f 36/71/160 28/59/161 29/60/162
f 36/71/163 29/60/164 25/55/165
f 25/55/166 26/54/167 36/71/168
f 9/72/169 6/73/170 3/74/171
f 3/74/172 17/75/173 9/76/174
f 3/74/175 18/77/176 17/75/177
f 3/74/178 23/78/179 18/77/180
usemtl laptop:metal
f 21/29/181 16/23/182 19/27/183
f 19/27/184 20/28/185 21/29/186
usemtl laptop:metalMedium
f 36/71/187 26/54/188 27/58/189
f 27/58/190 28/59/191 36/71/192
f 34/65/193 25/55/194 29/60/195
f 29/60/196 31/62/197 34/65/198
f 35/69/199 30/61/200 32/63/201
f 32/63/202 33/64/203 35/69/204
usemtl laptop:metalDark
f 2/1/205 1/2/206 3/3/207
f 3/3/208 4/4/209 2/1/210
f 3/3/211 5/5/212 4/4/213
f 3/3/214 6/6/215 5/5/216
f 2/7/217 4/8/218 7/9/219
f 7/9/220 8/10/221 2/7/222
f 5/11/223 6/12/224 9/13/225
f 9/13/226 10/14/227 5/11/228
f 4/15/229 5/16/230 10/17/231
f 10/17/232 7/18/233 4/15/234
f 12/19/235 11/20/236 13/21/237
f 13/21/238 14/22/239 12/19/240
f 16/23/241 15/24/242 17/25/243
f 17/25/244 18/26/245 16/23/246
f 18/26/247 19/27/248 16/23/249
f 18/26/250 20/28/251 19/27/252
f 15/24/253 16/23/254 21/29/255
f 21/29/256 11/30/257 15/24/258
f 21/29/259 20/28/260 11/30/261
f 20/28/262 18/26/263 11/30/264
f 18/26/265 22/31/266 11/30/267
f 22/31/268 13/32/269 11/30/270
f 2/79/271 8/34/272 15/35/273
f 15/35/274 1/36/275 2/80/276
f 15/35/277 11/38/278 1/36/279
f 11/38/280 12/39/281 1/36/282
f 22/40/283 18/41/284 23/42/285
f 23/42/286 24/43/287 22/40/288
f 14/44/289 13/45/290 22/46/291
f 22/46/292 24/47/293 14/44/294
f 3/48/295 1/49/296 12/50/297
f 12/50/298 23/51/299 3/48/300
f 12/50/301 14/52/302 23/51/303
f 14/52/304 24/53/305 23/51/306
f 26/54/307 25/55/308 7/56/309
f 7/56/310 10/57/311 26/54/312
f 10/57/313 27/58/314 26/54/315
f 10/57/316 28/59/317 27/58/318
f 10/57/319 29/60/320 28/59/321
f 10/57/322 30/61/323 29/60/324
f 30/61/325 31/62/326 29/60/327
f 10/57/328 32/63/329 30/61/330
f 10/57/331 33/64/332 32/63/333
f 7/56/334 25/55/335 34/65/336
f 7/56/337 34/65/338 15/66/339
f 15/66/340 8/67/341 7/56/342
f 34/65/343 17/68/344 15/66/345
f 34/65/346 31/62/347 17/68/348
f 33/64/349 10/57/350 17/68/351
f 31/62/352 35/69/353 17/68/354
f 31/62/355 30/61/356 35/69/357
f 35/69/358 33/64/359 17/68/360
f 10/57/361 9/70/362 17/68/363
f 36/71/364 28/59/365 29/60/366
f 36/71/367 29/60/368 25/55/369
f 25/55/370 26/54/371 36/71/372
f 9/81/373 6/82/374 3/74/375
f 3/74/376 17/75/377 9/83/378
f 3/74/379 18/77/380 17/75/381
f 3/74/382 23/78/383 18/77/384
usemtl laptop:metal
f 21/29/385 16/23/386 19/27/387
f 19/27/388 20/28/389 21/29/390
usemtl laptop:metalMedium
f 36/71/391 26/54/392 27/58/393
f 27/58/394 28/59/395 36/71/396
f 34/65/397 25/55/398 29/60/399
f 29/60/400 31/62/401 34/65/402
f 35/69/403 30/61/404 32/63/405
f 32/63/406 33/64/407 35/69/408
