# This file uses centimeters as units for non-parametric coordinates.

mtllib table_round.mtl
g default
v 0.346410 0.131794 0.200000
v 0.040000 0.131794 0.040000
v -0.000000 0.131794 0.400000
v -0.040000 0.131794 0.040000
v -0.346410 0.131794 0.200000
v -0.040000 0.131794 -0.040000
v 0.040000 0.131794 -0.040000
v -0.000000 0.131794 -0.400000
v 0.346410 0.131794 -0.200000
v 0.346410 0.131794 0.000000
v -0.346410 0.131794 -0.200000
v -0.346410 0.131794 0.000000
v 0.346410 0.183367 -0.200000
v 0.346410 0.183367 0.200000
v -0.000000 0.183367 -0.400000
v -0.000000 0.183367 0.400000
v -0.346410 0.183367 -0.200000
v -0.346410 0.183367 0.200000
v -0.040000 -0.113367 -0.040000
v 0.040000 -0.113367 -0.040000
v 0.040000 -0.113367 0.040000
v -0.040000 -0.113367 0.040000
v -0.060000 -0.133367 -0.060000
v 0.060000 -0.133367 -0.060000
v -0.060000 -0.113367 -0.060000
v 0.060000 -0.113367 -0.060000
v 0.060000 -0.113367 0.060000
v 0.060000 -0.133367 0.060000
v -0.060000 -0.133367 0.060000
v -0.060000 -0.113367 0.060000
v 0.100000 -0.133367 -0.100000
v 0.100000 -0.163367 -0.100000
v 0.100000 -0.133367 0.100000
v 0.100000 -0.163367 0.100000
v -0.100000 -0.163367 0.100000
v -0.100000 -0.133367 0.100000
v -0.100000 -0.163367 -0.100000
v -0.100000 -0.133367 -0.100000
v 0.110000 -0.183367 0.110000
v 0.110000 -0.183367 -0.110000
v -0.110000 -0.183367 0.110000
v -0.110000 -0.183367 -0.110000
vt -12.063390 17.322830
vt -0.000000 23.622049
vt -13.638200 31.496059
vt -15.213000 17.322830
vt -27.276390 23.622049
vt -15.213000 14.173230
vt -12.063390 14.173230
vt -13.638200 0.000000
vt 0.000000 7.874016
vt 0.000000 15.748030
vt -27.276390 7.874016
vt -27.276390 15.748030
vt 0.000000 23.622049
vt 13.638200 0.000000
vt 13.638200 31.496059
vt 27.276390 7.874016
vt 27.276390 23.622049
vt -11.811020 1.777978
vt 3.937008 1.777978
vt 3.937008 3.808424
vt -11.811020 3.808424
vt 7.874016 3.808424
vt 7.874016 1.777978
vt 15.748030 1.777978
vt 23.622049 3.808424
vt 23.622049 1.777978
vt 11.811020 1.777978
vt 27.559059 1.777978
vt 27.559059 3.808424
vt 11.811020 3.808424
vt -3.937008 1.777978
vt -3.937008 3.808424
vt -7.874016 1.777978
vt -7.874016 3.808424
vt -23.622049 3.808424
vt -15.748030 1.777978
vt -23.622049 1.777978
vt -27.559059 1.777978
vt -27.559059 3.808424
vt 12.063390 -7.874016
vt 15.213000 -7.874016
vt 15.213000 1.777978
vt 12.063390 1.777978
vt -14.173230 -7.874016
vt -14.173230 1.777978
vt -17.322830 1.777978
vt -17.322830 -7.874016
vt -15.213000 -7.874016
vt -12.063390 -7.874016
vt -12.063390 1.777978
vt -15.213000 1.777978
vt 14.173230 1.777978
vt 14.173230 -7.874016
vt 17.322830 -7.874016
vt 17.322830 1.777978
vt 11.275990 -8.661417
vt 16.000401 -8.661417
vt 16.000401 -7.874016
vt 11.275990 -7.874016
vt -13.385830 -8.661417
vt -13.385830 -7.874016
vt -18.110241 -7.874016
vt -18.110241 -8.661417
vt 13.385830 -7.874016
vt 13.385830 -8.661417
vt 18.110241 -8.661417
vt 18.110241 -7.874016
vt 12.063390 14.173230
vt 11.275990 18.110241
vt 11.275990 13.385830
vt 16.000401 13.385830
vt 15.213000 14.173230
vt 15.213000 17.322830
vt 12.063390 17.322830
vt 16.000401 18.110241
vt -11.811020 -9.842520
vt -11.811020 -8.661417
vt -19.685040 -8.661417
vt -19.685040 -9.842520
vt -17.575199 -9.842520
vt -9.701187 -9.842520
vt -9.701187 -8.661417
vt -17.575199 -8.661417
vt 9.701187 -9.842520
vt 17.575199 -9.842520
vt 17.575199 -8.661417
vt 9.701187 -8.661417
vt 11.811020 -8.661417
vt 11.811020 -9.842520
vt 19.685040 -9.842520
vt 19.685040 -8.661417
vt 9.701187 19.685040
vt 9.701187 11.811020
vt 17.575199 11.811020
vt 17.575199 19.685040
vt -9.307487 11.417320
vt -9.307487 20.078739
vt -17.968901 20.078739
vt -17.968901 11.417320
vt -17.968901 -18.487181
vt -9.307487 -18.487181
vt -9.701187 -17.606831
vt -17.575199 -17.606831
vt 11.811020 -16.663290
vt 11.417320 -17.543631
vt 20.078739 -17.543631
vt 19.685040 -16.663290
vt 9.307487 -4.401709
vt 17.968901 -4.401709
vt 17.575199 -3.521367
vt 9.701187 -3.521367
vt -20.078739 -5.345256
vt -11.417320 -5.345256
vt -11.811020 -4.464914
vt -19.685040 -4.464914
vt -16.000401 -8.661417
vt -11.275990 -8.661417
vt -11.275990 -7.874016
vt -16.000401 -7.874016
vt 0.000000 7.874016
vt -11.811020 1.777978
vt -11.811020 3.808424
vt -11.811020 3.808424
vt 11.275990 13.385830
vt 11.275990 13.385830
vt 16.000401 13.385830
vt 11.275990 13.385830
vt 16.000401 18.110241
vt 16.000401 13.385830
vt 11.275990 13.385830
vt 11.275990 18.110241
vt 11.275990 18.110241
vt 11.275990 18.110241
vt 16.000401 18.110241
vt 16.000401 18.110241
vt 0.000000 7.874016
vt -11.811020 1.777978
vt -11.811020 3.808424
vt -11.811020 3.808424
vt 11.275990 13.385830
vt 11.275990 13.385830
vt 16.000401 13.385830
vt 11.275990 13.385830
vt 16.000401 18.110241
vt 16.000401 13.385830
vt 11.275990 13.385830
vt 11.275990 18.110241
vt 11.275990 18.110241
vt 11.275990 18.110241
vt 16.000401 18.110241
vt 16.000401 18.110241
vn 0.000000 -1.000000 0.000000
vn 0.000000 -1.000000 0.000000
vn 0.000000 -1.000000 0.000000
vn 0.000000 -1.000000 0.000000
vn 0.000000 -1.000000 0.000000
vn 0.000000 -1.000000 0.000000
vn 0.000000 -1.000000 0.000000
vn 0.000000 -1.000000 0.000000
vn 0.000000 -1.000000 0.000000
vn 0.000000 -1.000000 0.000000
vn 0.000000 -1.000000 0.000000
vn 0.000000 -1.000000 0.000000
vn 0.000000 -1.000000 0.000000
vn 0.000000 -1.000000 0.000000
vn 0.000000 -1.000000 0.000000
vn 0.000000 -1.000000 0.000000
vn 0.000000 -1.000000 0.000000
vn 0.000000 -1.000000 0.000000
vn 0.000000 -1.000000 0.000000
vn 0.000000 -1.000000 0.000000
vn 0.000000 -1.000000 0.000000
vn 0.000000 -1.000000 0.000000
vn 0.000000 -1.000000 0.000000
vn 0.000000 -1.000000 0.000000
vn 0.000000 -1.000000 0.000000
vn 0.000000 -1.000000 0.000000
vn 0.000000 -1.000000 0.000000
vn 0.000000 -1.000000 0.000000
vn 0.000000 -1.000000 0.000000
vn 0.000000 -1.000000 0.000000
vn 0.000000 -1.000000 0.000000
vn 0.000000 -1.000000 0.000000
vn 0.000000 -1.000000 0.000000
vn 0.000000 -1.000000 0.000000
vn 0.000000 -1.000000 0.000000
vn 0.000000 -1.000000 0.000000
vn 0.000000 1.000000 0.000000
vn 0.000000 1.000000 0.000000
vn 0.000000 1.000000 0.000000
vn 0.000000 1.000000 0.000000
vn 0.000000 1.000000 0.000000
vn 0.000000 1.000000 0.000000
vn 0.000000 1.000000 0.000000
vn 0.000000 1.000000 0.000000
vn 0.000000 1.000000 0.000000
vn 0.000000 1.000000 0.000000
vn 0.000000 1.000000 0.000000
vn 0.000000 1.000000 0.000000
vn -0.500000 0.000000 0.866025
vn -0.500000 0.000000 0.866025
vn -0.500000 0.000000 0.866025
vn -0.500000 0.000000 0.866025
vn -0.500000 0.000000 0.866025
vn -0.500000 0.000000 0.866025
vn -1.000000 0.000000 0.000000
vn -1.000000 0.000000 0.000000
vn -1.000000 0.000000 0.000000
vn -1.000000 0.000000 0.000000
vn -1.000000 0.000000 0.000000
vn -1.000000 0.000000 0.000000
vn -1.000000 0.000000 0.000000
vn -1.000000 0.000000 0.000000
vn -1.000000 0.000000 0.000000
vn -0.500000 0.000000 -0.866025
vn -0.500000 0.000000 -0.866025
vn -0.500000 0.000000 -0.866025
vn -0.500000 0.000000 -0.866025
vn -0.500000 0.000000 -0.866025
vn -0.500000 0.000000 -0.866025
vn 0.500000 0.000000 -0.866025
vn 0.500000 0.000000 -0.866025
vn 0.500000 0.000000 -0.866025
vn 0.500000 0.000000 -0.866025
vn 0.500000 0.000000 -0.866025
vn 0.500000 0.000000 -0.866025
vn 1.000000 0.000000 0.000000
vn 1.000000 0.000000 0.000000
vn 1.000000 0.000000 0.000000
vn 1.000000 0.000000 0.000000
vn 1.000000 0.000000 0.000000
vn 1.000000 0.000000 0.000000
vn 1.000000 0.000000 0.000000
vn 1.000000 0.000000 0.000000
vn 1.000000 0.000000 0.000000
vn 0.500000 0.000000 0.866025
vn 0.500000 0.000000 0.866025
vn 0.500000 0.000000 0.866025
vn 0.500000 0.000000 0.866025
vn 0.500000 0.000000 0.866025
vn 0.500000 0.000000 0.866025
vn 0.000000 0.000000 -1.000000
vn 0.000000 0.000000 -1.000000
vn 0.000000 0.000000 -1.000000
vn 0.000000 0.000000 -1.000000
vn 0.000000 0.000000 -1.000000
vn 0.000000 0.000000 -1.000000
vn 1.000000 0.000000 0.000000
vn 1.000000 0.000000 0.000000
vn 1.000000 0.000000 0.000000
vn 1.000000 0.000000 0.000000
vn 1.000000 0.000000 0.000000
vn 1.000000 0.000000 0.000000
vn 0.000000 0.000000 1.000000
vn 0.000000 0.000000 1.000000
vn 0.000000 0.000000 1.000000
vn 0.000000 0.000000 1.000000
vn 0.000000 0.000000 1.000000
vn 0.000000 0.000000 1.000000
vn -1.000000 0.000000 0.000000
vn -1.000000 0.000000 0.000000
vn -1.000000 0.000000 0.000000
vn -1.000000 0.000000 0.000000
vn -1.000000 0.000000 0.000000
vn -1.000000 0.000000 0.000000
vn 0.000000 0.000000 -1.000000
vn 0.000000 0.000000 -1.000000
vn 0.000000 0.000000 -1.000000
vn 0.000000 0.000000 -1.000000
vn 0.000000 0.000000 -1.000000
vn 0.000000 0.000000 -1.000000
vn 1.000000 0.000000 0.000000
vn 1.000000 0.000000 0.000000
vn 1.000000 0.000000 0.000000
vn 1.000000 0.000000 0.000000
vn 1.000000 0.000000 0.000000
vn 1.000000 0.000000 0.000000
vn -1.000000 0.000000 0.000000
vn -1.000000 0.000000 0.000000
vn -1.000000 0.000000 0.000000
vn -1.000000 0.000000 0.000000
vn -1.000000 0.000000 0.000000
vn -1.000000 0.000000 0.000000
vn 0.000000 1.000000 0.000000
vn 0.000000 1.000000 0.000000
vn 0.000000 1.000000 0.000000
vn 0.000000 1.000000 0.000000
vn 0.000000 1.000000 0.000000
vn 0.000000 1.000000 0.000000
vn 0.000000 1.000000 0.000000
vn 0.000000 1.000000 0.000000
vn 0.000000 1.000000 0.000000
vn 0.000000 1.000000 0.000000
vn 0.000000 1.000000 0.000000
vn 0.000000 1.000000 0.000000
vn 0.000000 1.000000 0.000000
vn 0.000000 1.000000 0.000000
vn 0.000000 1.000000 0.000000
vn 0.000000 1.000000 0.000000
vn 0.000000 1.000000 0.000000
vn 0.000000 1.000000 0.000000
vn 0.000000 1.000000 0.000000
vn 0.000000 1.000000 0.000000
vn 0.000000 1.000000 0.000000
vn 0.000000 1.000000 0.000000
vn 0.000000 1.000000 0.000000
vn 0.000000 1.000000 0.000000
vn 1.000000 0.000000 0.000000
vn 1.000000 0.000000 0.000000
vn 1.000000 0.000000 0.000000
vn 1.000000 0.000000 0.000000
vn 1.000000 0.000000 0.000000
vn 1.000000 0.000000 0.000000
vn 0.000000 0.000000 1.000000
vn 0.000000 0.000000 1.000000
vn 0.000000 0.000000 1.000000
vn 0.000000 0.000000 1.000000
vn 0.000000 0.000000 1.000000
vn 0.000000 0.000000 1.000000
vn 0.000000 0.000000 -1.000000
vn 0.000000 0.000000 -1.000000
vn 0.000000 0.000000 -1.000000
vn 0.000000 0.000000 -1.000000
vn 0.000000 0.000000 -1.000000
vn 0.000000 0.000000 -1.000000
vn -1.000000 0.000000 0.000000
vn -1.000000 0.000000 0.000000
vn -1.000000 0.000000 0.000000
vn -1.000000 0.000000 0.000000
vn -1.000000 0.000000 0.000000
vn -1.000000 0.000000 0.000000
vn 0.000000 1.000000 0.000000
vn 0.000000 1.000000 0.000000
vn 0.000000 1.000000 0.000000
vn 0.000000 1.000000 0.000000
vn 0.000000 1.000000 0.000000
vn 0.000000 1.000000 0.000000
vn 0.000000 1.000000 0.000000
vn 0.000000 1.000000 0.000000
vn 0.000000 1.000000 0.000000
vn 0.000000 1.000000 0.000000
vn 0.000000 1.000000 0.000000
vn 0.000000 1.000000 0.000000
vn 0.000000 1.000000 0.000000
vn 0.000000 1.000000 0.000000
vn 0.000000 1.000000 0.000000
vn 0.000000 1.000000 0.000000
vn 0.000000 1.000000 0.000000
vn 0.000000 1.000000 0.000000
vn 0.000000 1.000000 0.000000
vn 0.000000 1.000000 0.000000
vn 0.000000 1.000000 0.000000
vn 0.000000 1.000000 0.000000
vn 0.000000 1.000000 0.000000
vn 0.000000 1.000000 0.000000
vn 0.000000 -1.000000 0.000000
vn 0.000000 -1.000000 0.000000
vn 0.000000 -1.000000 0.000000
vn 0.000000 -1.000000 0.000000
vn 0.000000 -1.000000 0.000000
vn 0.000000 -1.000000 0.000000
vn 0.000000 0.447214 0.894427
vn 0.000000 0.447214 0.894427
vn 0.000000 0.447214 0.894427
vn 0.000000 0.447214 0.894427
vn 0.000000 0.447214 0.894427
vn 0.000000 0.447214 0.894427
vn -0.894427 0.447214 0.000000
vn -0.894427 0.447214 0.000000
vn -0.894427 0.447214 0.000000
vn -0.894427 0.447214 0.000000
vn -0.894427 0.447214 0.000000
vn -0.894427 0.447214 0.000000
vn 0.000000 0.447214 -0.894427
vn 0.000000 0.447214 -0.894427
vn 0.000000 0.447214 -0.894427
vn 0.000000 0.447214 -0.894427
vn 0.000000 0.447214 -0.894427
vn 0.000000 0.447214 -0.894427
vn 0.894427 0.447214 0.000000
vn 0.894427 0.447214 0.000000
vn 0.894427 0.447214 0.000000
vn 0.894427 0.447214 0.000000
vn 0.894427 0.447214 0.000000
vn 0.894427 0.447214 0.000000
vn 0.000000 0.000000 1.000000
vn 0.000000 0.000000 1.000000
vn 0.000000 0.000000 1.000000
vn 0.000000 0.000000 1.000000
vn 0.000000 0.000000 1.000000
vn 0.000000 0.000000 1.000000
vn 0.000000 -1.000000 0.000000
vn 0.000000 -1.000000 0.000000
vn 0.000000 -1.000000 0.000000
vn 0.000000 -1.000000 0.000000
vn 0.000000 -1.000000 0.000000
vn 0.000000 -1.000000 0.000000
vn 0.000000 -1.000000 0.000000
vn 0.000000 -1.000000 0.000000
vn 0.000000 -1.000000 0.000000
vn 0.000000 -1.000000 0.000000
vn 0.000000 -1.000000 0.000000
vn 0.000000 -1.000000 0.000000
vn 0.000000 -1.000000 0.000000
vn 0.000000 -1.000000 0.000000
vn 0.000000 -1.000000 0.000000
vn 0.000000 -1.000000 0.000000
vn 0.000000 -1.000000 0.000000
vn 0.000000 -1.000000 0.000000
vn 0.000000 -1.000000 0.000000
vn 0.000000 -1.000000 0.000000
vn 0.000000 -1.000000 0.000000
vn 0.000000 -1.000000 0.000000
vn 0.000000 -1.000000 0.000000
vn 0.000000 -1.000000 0.000000
vn 0.000000 -1.000000 0.000000
vn 0.000000 -1.000000 0.000000
vn 0.000000 -1.000000 0.000000
vn 0.000000 -1.000000 0.000000
vn 0.000000 -1.000000 0.000000
vn 0.000000 -1.000000 0.000000
vn 0.000000 -1.000000 0.000000
vn 0.000000 -1.000000 0.000000
vn 0.000000 -1.000000 0.000000
vn 0.000000 -1.000000 0.000000
vn 0.000000 -1.000000 0.000000
vn 0.000000 -1.000000 0.000000
vn 0.000000 1.000000 0.000000
vn 0.000000 1.000000 0.000000
vn 0.000000 1.000000 0.000000
vn 0.000000 1.000000 0.000000
vn 0.000000 1.000000 0.000000
vn 0.000000 1.000000 0.000000
vn 0.000000 1.000000 0.000000
vn 0.000000 1.000000 0.000000
vn 0.000000 1.000000 0.000000
vn 0.000000 1.000000 0.000000
vn 0.000000 1.000000 0.000000
vn 0.000000 1.000000 0.000000
vn -0.500000 0.000000 0.866025
vn -0.500000 0.000000 0.866025
vn -0.500000 0.000000 0.866025
vn -0.500000 0.000000 0.866025
vn -0.500000 0.000000 0.866025
vn -0.500000 0.000000 0.866025
vn -1.000000 0.000000 0.000000
vn -1.000000 0.000000 0.000000
vn -1.000000 0.000000 0.000000
vn -1.000000 0.000000 0.000000
vn -1.000000 0.000000 0.000000
vn -1.000000 0.000000 0.000000
vn -1.000000 0.000000 0.000000
vn -1.000000 0.000000 0.000000
vn -1.000000 0.000000 0.000000
vn -0.500000 0.000000 -0.866025
vn -0.500000 0.000000 -0.866025
vn -0.500000 0.000000 -0.866025
vn -0.500000 0.000000 -0.866025
vn -0.500000 0.000000 -0.866025
vn -0.500000 0.000000 -0.866025
vn 0.500000 0.000000 -0.866025
vn 0.500000 0.000000 -0.866025
vn 0.500000 0.000000 -0.866025
vn 0.500000 0.000000 -0.866025
vn 0.500000 0.000000 -0.866025
vn 0.500000 0.000000 -0.866025
vn 1.000000 0.000000 0.000000
vn 1.000000 0.000000 0.000000
vn 1.000000 0.000000 0.000000
vn 1.000000 0.000000 0.000000
vn 1.000000 0.000000 0.000000
vn 1.000000 0.000000 0.000000
vn 1.000000 0.000000 0.000000
vn 1.000000 0.000000 0.000000
vn 1.000000 0.000000 0.000000
vn 0.500000 0.000000 0.866025
vn 0.500000 0.000000 0.866025
vn 0.500000 0.000000 0.866025
vn 0.500000 0.000000 0.866025
vn 0.500000 0.000000 0.866025
vn 0.500000 0.000000 0.866025
vn 0.000000 0.000000 -1.000000
vn 0.000000 0.000000 -1.000000
vn 0.000000 0.000000 -1.000000
vn 0.000000 0.000000 -1.000000
vn 0.000000 0.000000 -1.000000
vn 0.000000 0.000000 -1.000000
vn 1.000000 0.000000 0.000000
vn 1.000000 0.000000 0.000000
vn 1.000000 0.000000 0.000000
vn 1.000000 0.000000 0.000000
vn 1.000000 0.000000 0.000000
vn 1.000000 0.000000 0.000000
vn 0.000000 0.000000 1.000000
vn 0.000000 0.000000 1.000000
vn 0.000000 0.000000 1.000000
vn 0.000000 0.000000 1.000000
vn 0.000000 0.000000 1.000000
vn 0.000000 0.000000 1.000000
vn -1.000000 0.000000 0.000000
vn -1.000000 0.000000 0.000000
vn -1.000000 0.000000 0.000000
vn -1.000000 0.000000 0.000000
vn -1.000000 0.000000 0.000000
vn -1.000000 0.000000 0.000000
vn 0.000000 0.000000 -1.000000
vn 0.000000 0.000000 -1.000000
vn 0.000000 0.000000 -1.000000
vn 0.000000 0.000000 -1.000000
vn 0.000000 0.000000 -1.000000
vn 0.000000 0.000000 -1.000000
vn 1.000000 0.000000 0.000000
vn 1.000000 0.000000 0.000000
vn 1.000000 0.000000 0.000000
vn 1.000000 0.000000 0.000000
vn 1.000000 0.000000 0.000000
vn 1.000000 0.000000 0.000000
vn -1.000000 0.000000 0.000000
vn -1.000000 0.000000 0.000000
vn -1.000000 0.000000 0.000000
vn -1.000000 0.000000 0.000000
vn -1.000000 0.000000 0.000000
vn -1.000000 0.000000 0.000000
vn 0.000000 1.000000 0.000000
vn 0.000000 1.000000 0.000000
vn 0.000000 1.000000 0.000000
vn 0.000000 1.000000 0.000000
vn 0.000000 1.000000 0.000000
vn 0.000000 1.000000 0.000000
vn 0.000000 1.000000 0.000000
vn 0.000000 1.000000 0.000000
vn 0.000000 1.000000 0.000000
vn 0.000000 1.000000 0.000000
vn 0.000000 1.000000 0.000000
vn 0.000000 1.000000 0.000000
vn 0.000000 1.000000 0.000000
vn 0.000000 1.000000 0.000000
vn 0.000000 1.000000 0.000000
vn 0.000000 1.000000 0.000000
vn 0.000000 1.000000 0.000000
vn 0.000000 1.000000 0.000000
vn 0.000000 1.000000 0.000000
vn 0.000000 1.000000 0.000000
vn 0.000000 1.000000 0.000000
vn 0.000000 1.000000 0.000000
vn 0.000000 1.000000 0.000000
vn 0.000000 1.000000 0.000000
vn 1.000000 0.000000 0.000000
vn 1.000000 0.000000 0.000000
vn 1.000000 0.000000 0.000000
vn 1.000000 0.000000 0.000000
vn 1.000000 0.000000 0.000000
vn 1.000000 0.000000 0.000000
vn 0.000000 0.000000 1.000000
vn 0.000000 0.000000 1.000000
vn 0.000000 0.000000 1.000000
vn 0.000000 0.000000 1.000000
vn 0.000000 0.000000 1.000000
vn 0.000000 0.000000 1.000000
vn 0.000000 0.000000 -1.000000
vn 0.000000 0.000000 -1.000000
vn 0.000000 0.000000 -1.000000
vn 0.000000 0.000000 -1.000000
vn 0.000000 0.000000 -1.000000
vn 0.000000 0.000000 -1.000000
vn -1.000000 0.000000 0.000000
vn -1.000000 0.000000 0.000000
vn -1.000000 0.000000 0.000000
vn -1.000000 0.000000 0.000000
vn -1.000000 0.000000 0.000000
vn -1.000000 0.000000 0.000000
vn 0.000000 1.000000 0.000000
vn 0.000000 1.000000 0.000000
vn 0.000000 1.000000 0.000000
vn 0.000000 1.000000 0.000000
vn 0.000000 1.000000 0.000000
vn 0.000000 1.000000 0.000000
vn 0.000000 1.000000 0.000000
vn 0.000000 1.000000 0.000000
vn 0.000000 1.000000 0.000000
vn 0.000000 1.000000 0.000000
vn 0.000000 1.000000 0.000000
vn 0.000000 1.000000 0.000000
vn 0.000000 1.000000 0.000000
vn 0.000000 1.000000 0.000000
vn 0.000000 1.000000 0.000000
vn 0.000000 1.000000 0.000000
vn 0.000000 1.000000 0.000000
vn 0.000000 1.000000 0.000000
vn 0.000000 1.000000 0.000000
vn 0.000000 1.000000 0.000000
vn 0.000000 1.000000 0.000000
vn 0.000000 1.000000 0.000000
vn 0.000000 1.000000 0.000000
vn 0.000000 1.000000 0.000000
vn 0.000000 -1.000000 0.000000
vn 0.000000 -1.000000 0.000000
vn 0.000000 -1.000000 0.000000
vn 0.000000 -1.000000 0.000000
vn 0.000000 -1.000000 0.000000
vn 0.000000 -1.000000 0.000000
vn 0.000000 0.447214 0.894427
vn 0.000000 0.447214 0.894427
vn 0.000000 0.447214 0.894427
vn 0.000000 0.447214 0.894427
vn 0.000000 0.447214 0.894427
vn 0.000000 0.447214 0.894427
vn -0.894427 0.447214 0.000000
vn -0.894427 0.447214 0.000000
vn -0.894427 0.447214 0.000000
vn -0.894427 0.447214 0.000000
vn -0.894427 0.447214 0.000000
vn -0.894427 0.447214 0.000000
vn 0.000000 0.447214 -0.894427
vn 0.000000 0.447214 -0.894427
vn 0.000000 0.447214 -0.894427
vn 0.000000 0.447214 -0.894427
vn 0.000000 0.447214 -0.894427
vn 0.000000 0.447214 -0.894427
vn 0.894427 0.447214 0.000000
vn 0.894427 0.447214 0.000000
vn 0.894427 0.447214 0.000000
vn 0.894427 0.447214 0.000000
vn 0.894427 0.447214 0.000000
vn 0.894427 0.447214 0.000000
vn 0.000000 0.000000 1.000000
vn 0.000000 0.000000 1.000000
vn 0.000000 0.000000 1.000000
vn 0.000000 0.000000 1.000000
vn 0.000000 0.000000 1.000000
vn 0.000000 0.000000 1.000000
s off
g tableRound:tableRound
usemtl tableRound:wood
f 2/1/1 1/2/2 3/3/3
f 3/3/4 4/4/5 2/1/6
f 3/3/7 5/5/8 4/4/9
f 5/5/10 6/6/11 4/4/12
f 1/2/13 2/1/14 7/7/15
f 1/2/16 7/7/17 8/8/18
f 7/7/19 6/6/20 8/8/21
f 1/2/22 8/8/23 9/9/24
f 9/9/25 10/10/26 1/2/27
f 6/6/28 11/11/29 8/8/30
f 6/6/31 5/5/32 11/11/33
f 5/5/34 12/12/35 11/11/36
f 14/13/37 13/120/38 15/14/39
f 15/14/40 16/15/41 14/13/42
f 15/14/43 17/16/44 16/15/45
f 17/16/46 18/17/47 16/15/48
f 5/18/49 3/19/50 16/20/51
f 16/20/52 18/21/53 5/18/54
f 17/22/55 11/23/56 12/24/57
f 12/24/58 18/25/59 17/22/60
f 12/24/61 5/26/62 18/25/63
f 8/27/64 11/28/65 17/29/66
f 17/29/67 15/30/68 8/27/69
f 9/31/70 8/27/71 15/30/72
f 15/30/73 13/32/74 9/31/75
f 9/33/76 13/34/77 14/35/78
f 14/35/79 10/36/80 9/33/81
f 14/35/82 1/37/83 10/36/84
f 3/38/85 1/121/86 14/122/87
f 14/123/88 16/39/89 3/38/90
f 20/40/91 19/41/92 6/42/93
f 6/42/94 7/43/95 20/40/96
f 20/44/97 7/45/98 2/46/99
f 2/46/100 21/47/101 20/44/102
f 22/48/103 21/49/104 2/50/105
f 2/50/106 4/51/107 22/48/108
f 6/52/109 19/53/110 22/54/111
f 22/54/112 4/55/113 6/52/114
f 24/56/115 23/57/116 25/58/117
f 25/58/118 26/59/119 24/56/120
f 24/60/121 26/61/122 27/62/123
f 27/62/124 28/63/125 24/60/126
f 25/64/127 23/65/128 29/66/129
f 29/66/130 30/67/131 25/64/132
f 20/68/133 27/69/134 26/70/135
f 26/70/136 25/71/137 20/68/138
f 25/71/139 19/72/140 20/68/141
f 25/71/142 22/73/143 19/72/144
f 27/69/145 20/68/146 21/74/147
f 21/74/148 30/75/149 27/69/150
f 21/74/151 22/73/152 30/75/153
f 22/73/154 25/71/155 30/75/156
f 32/76/157 31/77/158 33/78/159
f 33/78/160 34/79/161 32/76/162
f 35/80/163 34/81/164 33/82/165
f 33/82/166 36/83/167 35/80/168
f 32/84/169 37/85/170 38/86/171
f 38/86/172 31/87/173 32/84/174
f 38/88/175 37/89/176 35/90/177
f 35/90/178 36/91/179 38/88/180
f 24/124/181 33/92/182 31/93/183
f 31/93/184 38/94/185 24/125/186
f 38/94/187 23/126/188 24/127/189
f 38/94/190 29/128/191 23/129/192
f 33/92/193 24/130/194 28/131/195
f 28/132/196 36/95/197 33/92/198
f 28/133/199 29/134/200 36/95/201
f 29/135/202 38/94/203 36/95/204
f 40/96/205 39/97/206 41/98/207
f 41/98/208 42/99/209 40/96/210
f 41/100/211 39/101/212 34/102/213
f 34/102/214 35/103/215 41/100/216
f 37/104/217 42/105/218 41/106/219
f 41/106/220 35/107/221 37/104/222
f 40/108/223 42/109/224 37/110/225
f 37/110/226 32/111/227 40/108/228
f 39/112/229 40/113/230 32/114/231
f 32/114/232 34/115/233 39/112/234
f 29/116/235 28/117/236 27/118/237
f 27/118/238 30/119/239 29/116/240
f 2/1/241 1/2/242 3/3/243
f 3/3/244 4/4/245 2/1/246
f 3/3/247 5/5/248 4/4/249
f 5/5/250 6/6/251 4/4/252
f 1/2/253 2/1/254 7/7/255
f 1/2/256 7/7/257 8/8/258
f 7/7/259 6/6/260 8/8/261
f 1/2/262 8/8/263 9/9/264
f 9/9/265 10/10/266 1/2/267
f 6/6/268 11/11/269 8/8/270
f 6/6/271 5/5/272 11/11/273
f 5/5/274 12/12/275 11/11/276
f 14/13/277 13/136/278 15/14/279
f 15/14/280 16/15/281 14/13/282
f 15/14/283 17/16/284 16/15/285
f 17/16/286 18/17/287 16/15/288
f 5/18/289 3/19/290 16/20/291
f 16/20/292 18/21/293 5/18/294
f 17/22/295 11/23/296 12/24/297
f 12/24/298 18/25/299 17/22/300
f 12/24/301 5/26/302 18/25/303
f 8/27/304 11/28/305 17/29/306
f 17/29/307 15/30/308 8/27/309
f 9/31/310 8/27/311 15/30/312
f 15/30/313 13/32/314 9/31/315
f 9/33/316 13/34/317 14/35/318
f 14/35/319 10/36/320 9/33/321
f 14/35/322 1/37/323 10/36/324
f 3/38/325 1/137/326 14/138/327
f 14/139/328 16/39/329 3/38/330
f 20/40/331 19/41/332 6/42/333
f 6/42/334 7/43/335 20/40/336
f 20/44/337 7/45/338 2/46/339
f 2/46/340 21/47/341 20/44/342
f 22/48/343 21/49/344 2/50/345
f 2/50/346 4/51/347 22/48/348
f 6/52/349 19/53/350 22/54/351
f 22/54/352 4/55/353 6/52/354
f 24/56/355 23/57/356 25/58/357
f 25/58/358 26/59/359 24/56/360
f 24/60/361 26/61/362 27/62/363
f 27/62/364 28/63/365 24/60/366
f 25/64/367 23/65/368 29/66/369
f 29/66/370 30/67/371 25/64/372
f 20/68/373 27/69/374 26/70/375
f 26/70/376 25/71/377 20/68/378
f 25/71/379 19/72/380 20/68/381
f 25/71/382 22/73/383 19/72/384
f 27/69/385 20/68/386 21/74/387
f 21/74/388 30/75/389 27/69/390
f 21/74/391 22/73/392 30/75/393
f 22/73/394 25/71/395 30/75/396
f 32/76/397 31/77/398 33/78/399
f 33/78/400 34/79/401 32/76/402
f 35/80/403 34/81/404 33/82/405
f 33/82/406 36/83/407 35/80/408
f 32/84/409 37/85/410 38/86/411
f 38/86/412 31/87/413 32/84/414
f 38/88/415 37/89/416 35/90/417
f 35/90/418 36/91/419 38/88/420
f 24/140/421 33/92/422 31/93/423
f 31/93/424 38/94/425 24/141/426
f 38/94/427 23/142/428 24/143/429
f 38/94/430 29/144/431 23/145/432
f 33/92/433 24/146/434 28/147/435
f 28/148/436 36/95/437 33/92/438
f 28/149/439 29/150/440 36/95/441
f 29/151/442 38/94/443 36/95/444
f 40/96/445 39/97/446 41/98/447
f 41/98/448 42/99/449 40/96/450
f 41/100/451 39/101/452 34/102/453
f 34/102/454 35/103/455 41/100/456
f 37/104/457 42/105/458 41/106/459
f 41/106/460 35/107/461 37/104/462
f 40/108/463 42/109/464 37/110/465
f 37/110/466 32/111/467 40/108/468
f 39/112/469 40/113/470 32/114/471
f 32/114/472 34/115/473 39/112/474
f 29/116/475 28/117/476 27/118/477
f 27/118/478 30/119/479 29/116/480
