# This file uses centimeters as units for non-parametric coordinates.

mtllib trashcan.mtl
g default
v -0.051923 -0.000000 0.095360
v -0.103847 0.000000 0.005426
v -0.051923 0.341056 0.095360
v -0.103847 0.368184 0.005426
v -0.051923 0.368184 0.095360
v -0.051923 0.000000 -0.084508
v -0.051923 0.032554 -0.084508
v -0.051923 0.368184 -0.084508
v 0.051923 0.368184 -0.084508
v 0.051923 0.032554 -0.084508
v 0.103847 -0.000000 0.005426
v 0.103847 0.368184 0.005426
v 0.051923 0.000000 -0.084508
v 0.051923 -0.000000 0.095360
v 0.051923 0.341056 0.095360
v 0.051923 0.368184 0.095360
v -0.046498 0.000000 -0.117062
v 0.046498 0.000000 -0.117062
v -0.051923 0.395312 0.095360
v 0.051923 0.395312 0.095360
v 0.103847 0.395312 0.005426
v 0.051923 0.395312 -0.084508
v -0.051923 0.395312 -0.084508
v -0.103847 0.395312 0.005426
v 0.035308 0.427866 -0.055729
v 0.070616 0.427866 0.005426
v -0.035308 0.427866 -0.055729
v -0.070616 0.427866 0.005426
v 0.035308 0.427866 0.066581
v -0.035308 0.427866 0.066581
v -0.046498 0.027128 -0.117062
v 0.046498 0.027128 -0.117062
v -0.044654 0.342955 0.117062
v -0.044654 0.366285 0.117062
v 0.044654 0.342955 0.117062
v 0.044654 0.366285 0.117062
vt -4.330709 0.000000
vt 4.330709 -0.000000
vt 4.330709 28.446011
vt -4.330709 30.708660
vt 4.330709 30.708660
vt -4.330709 0.000000
vt 4.330709 0.000000
vt -4.330709 2.715178
vt 4.330709 2.715178
vt -4.330709 -0.000000
vt -4.330709 -0.000000
vt 4.330709 -0.000000
vt -4.330709 28.446011
vt 7.501008 -4.330709
vt 10.216190 -3.878179
vt 10.216190 3.878179
vt 7.501008 4.330709
vt -0.000000 -8.661417
vt 0.000000 8.661417
vt -7.501008 4.330709
vt -7.501008 -4.330709
vt 4.330709 -0.000000
vt -4.330709 32.971310
vt 4.330709 32.971310
vt -0.000000 5.889764
vt -5.100685 2.944882
vt -5.100685 -2.944882
vt -0.000000 -5.889764
vt 5.100685 2.944882
vt 5.100685 -2.944882
vt -4.330709 19.734310
vt 4.330709 19.734310
vt 2.944882 23.358360
vt -2.944882 23.358360
vt -9.439614 0.000000
vt -6.686984 0.000000
vt -6.686984 2.715178
vt -9.439614 2.262648
vt 6.686984 0.000000
vt 9.439614 0.000000
vt 9.439614 2.262648
vt 6.686984 2.715178
vt -3.878179 -9.705206
vt 3.878179 -9.705206
vt 4.330709 -6.952576
vt -4.330709 -6.952576
vt 3.878179 0.000000
vt 3.878179 2.262648
vt -3.878179 2.262648
vt -3.878179 0.000000
vt -3.724409 30.550280
vt -3.724409 28.604401
vt 3.724409 28.604401
vt 3.724409 30.550280
vt 5.737160 30.708660
vt 5.737160 28.446011
vt 7.646120 28.604401
vt 7.646120 30.550280
vt -4.330709 9.952008
vt 4.330709 9.952008
vt 3.724409 11.769040
vt -3.724409 11.769040
vt -7.646120 28.604401
vt -5.737160 28.446011
vt -5.737160 30.708660
vt -7.646120 30.550280
vt 3.724409 -6.612711
vt 4.330709 -4.795676
vt -4.330709 -4.795676
vt -3.724409 -6.612711
vt 4.330709 30.708660
vt 4.330709 30.708660
vt 4.330709 30.708660
vt -4.330709 30.708660
vt 4.330709 30.708660
vt -4.330709 30.708660
vt -4.330709 30.708660
vt -4.330709 2.715178
vt -4.330709 30.708660
vt 4.330709 0.000000
vt 4.330709 0.000000
vt 4.330709 2.715178
vt -4.330709 30.708660
vt 4.330709 2.715178
vt 4.330709 30.708660
vt -4.330709 30.708660
vt 4.330709 30.708660
vt 4.330709 30.708660
vt 4.330709 30.708660
vt -4.330709 30.708660
vt -4.330709 28.446011
vt -4.330709 -0.000000
vt 4.330709 28.446011
vt -4.330709 28.446011
vt -4.330709 30.708660
vt 4.330709 30.708660
vt 4.330709 30.708660
vt -4.330709 30.708660
vt 4.330709 30.708660
vt 4.330709 32.971310
vt 4.330709 32.971310
vt -4.330709 32.971310
vt -4.330709 30.708660
vt -4.330709 30.708660
vt 4.330709 30.708660
vt 4.330709 32.971310
vt 4.330709 32.971310
vt -4.330709 32.971310
vt -4.330709 30.708660
vt 4.330709 30.708660
vt 4.330709 32.971310
vt -4.330709 32.971310
vt -4.330709 32.971310
vt -4.330709 30.708660
vt 4.330709 30.708660
vt -4.330709 30.708660
vt 4.330709 30.708660
vt 4.330709 32.971310
vt 4.330709 32.971310
vt -4.330709 32.971310
vt -4.330709 30.708660
vt 4.330709 32.971310
vt 4.330709 32.971310
vt -4.330709 32.971310
vt -2.944882 23.358360
vt -4.330709 19.734310
vt 4.330709 19.734310
vt 4.330709 19.734310
vt 2.944882 23.358360
vt -2.944882 23.358360
vt 2.944882 23.358360
vt -2.944882 23.358360
vt -4.330709 19.734310
vt -4.330709 19.734310
vt 4.330709 19.734310
vt 2.944882 23.358360
vt -2.944882 23.358360
vt -4.330709 19.734310
vt 4.330709 19.734310
vt 4.330709 19.734310
vt 2.944882 23.358360
vt -2.944882 23.358360
vt 4.330709 19.734310
vt 2.944882 23.358360
vt -2.944882 23.358360
vt -2.944882 23.358360
vt -4.330709 19.734310
vt 4.330709 19.734310
vt -4.330709 19.734310
vt 4.330709 19.734310
vt 2.944882 23.358360
vt 2.944882 23.358360
vt -2.944882 23.358360
vt -4.330709 19.734310
vt 4.330709 30.708660
vt 4.330709 30.708660
vt 4.330709 30.708660
vt -4.330709 30.708660
vt 4.330709 30.708660
vt -4.330709 30.708660
vt -4.330709 30.708660
vt -4.330709 2.715178
vt -4.330709 30.708660
vt 4.330709 0.000000
vt 4.330709 0.000000
vt 4.330709 2.715178
vt -4.330709 30.708660
vt 4.330709 2.715178
vt 4.330709 30.708660
vt -4.330709 30.708660
vt 4.330709 30.708660
vt 4.330709 30.708660
vt 4.330709 30.708660
vt -4.330709 30.708660
vt -4.330709 28.446011
vt -4.330709 -0.000000
vt 4.330709 28.446011
vt -4.330709 28.446011
vt -4.330709 30.708660
vt 4.330709 30.708660
vt 4.330709 30.708660
vt -4.330709 30.708660
vt 4.330709 30.708660
vt 4.330709 32.971310
vt 4.330709 32.971310
vt -4.330709 32.971310
vt -4.330709 30.708660
vt -4.330709 30.708660
vt 4.330709 30.708660
vt 4.330709 32.971310
vt 4.330709 32.971310
vt -4.330709 32.971310
vt -4.330709 30.708660
vt 4.330709 30.708660
vt 4.330709 32.971310
vt -4.330709 32.971310
vt -4.330709 32.971310
vt -4.330709 30.708660
vt 4.330709 30.708660
vt -4.330709 30.708660
vt 4.330709 30.708660
vt 4.330709 32.971310
vt 4.330709 32.971310
vt -4.330709 32.971310
vt -4.330709 30.708660
vt 4.330709 32.971310
vt 4.330709 32.971310
vt -4.330709 32.971310
vt -2.944882 23.358360
vt -4.330709 19.734310
vt 4.330709 19.734310
vt 4.330709 19.734310
vt 2.944882 23.358360
vt -2.944882 23.358360
vt 2.944882 23.358360
vt -2.944882 23.358360
vt -4.330709 19.734310
vt -4.330709 19.734310
vt 4.330709 19.734310
vt 2.944882 23.358360
vt -2.944882 23.358360
vt -4.330709 19.734310
vt 4.330709 19.734310
vt 4.330709 19.734310
vt 2.944882 23.358360
vt -2.944882 23.358360
vt 4.330709 19.734310
vt 2.944882 23.358360
vt -2.944882 23.358360
vt -2.944882 23.358360
vt -4.330709 19.734310
vt 4.330709 19.734310
vt -4.330709 19.734310
vt 4.330709 19.734310
vt 2.944882 23.358360
vt 2.944882 23.358360
vt -2.944882 23.358360
vt -4.330709 19.734310
vn -0.866025 0.000000 0.500000
vn -0.866025 0.000000 0.500000
vn -0.866025 0.000000 0.500000
vn -0.866025 0.000000 0.500000
vn -0.866025 0.000000 0.500000
vn -0.866025 0.000000 0.500000
vn -0.866025 0.000000 0.500000
vn -0.866025 0.000000 0.500000
vn -0.866025 0.000000 0.500000
vn -0.866026 0.000000 -0.500000
vn -0.866026 0.000000 -0.500000
vn -0.866026 0.000000 -0.500000
vn -0.866026 0.000000 -0.500000
vn -0.866026 0.000000 -0.500000
vn -0.866026 0.000000 -0.500000
vn -0.866026 0.000000 -0.500000
vn -0.866026 0.000000 -0.500000
vn -0.866026 0.000000 -0.500000
vn -0.000000 0.000000 -1.000000
vn -0.000000 0.000000 -1.000000
vn -0.000000 0.000000 -1.000000
vn -0.000000 0.000000 -1.000000
vn -0.000000 0.000000 -1.000000
vn -0.000000 0.000000 -1.000000
vn 0.866025 0.000000 -0.500000
vn 0.866025 0.000000 -0.500000
vn 0.866025 0.000000 -0.500000
vn 0.866025 0.000000 -0.500000
vn 0.866025 0.000000 -0.500000
vn 0.866025 0.000000 -0.500000
vn 0.866025 0.000000 -0.500000
vn 0.866025 0.000000 -0.500000
vn 0.866025 0.000000 -0.500000
vn 0.866026 0.000000 0.500000
vn 0.866026 0.000000 0.500000
vn 0.866026 0.000000 0.500000
vn 0.866026 0.000000 0.500000
vn 0.866026 0.000000 0.500000
vn 0.866026 0.000000 0.500000
vn 0.866026 0.000000 0.500000
vn 0.866026 0.000000 0.500000
vn 0.866026 0.000000 0.500000
vn 0.000000 -1.000000 0.000000
vn 0.000000 -1.000000 0.000000
vn 0.000000 -1.000000 0.000000
vn 0.000000 -1.000000 0.000000
vn 0.000000 -1.000000 0.000000
vn 0.000000 -1.000000 0.000000
vn 0.000000 -1.000000 0.000000
vn 0.000000 -1.000000 0.000000
vn 0.000000 -1.000000 0.000000
vn 0.000000 -1.000000 0.000000
vn 0.000000 -1.000000 0.000000
vn 0.000000 -1.000000 0.000000
vn 0.000000 -1.000000 0.000000
vn 0.000000 -1.000000 0.000000
vn 0.000000 -1.000000 0.000000
vn 0.000000 -1.000000 0.000000
vn 0.000000 -1.000000 0.000000
vn 0.000000 -1.000000 0.000000
vn 0.000000 0.000000 1.000000
vn 0.000000 0.000000 1.000000
vn 0.000000 0.000000 1.000000
vn 0.000000 0.000000 1.000000
vn 0.000000 0.000000 1.000000
vn 0.000000 0.000000 1.000000
vn 0.000000 0.000000 1.000000
vn 0.000000 0.000000 1.000000
vn 0.000000 0.000000 1.000000
vn 0.000000 0.000000 1.000000
vn 0.000000 0.000000 1.000000
vn 0.000000 0.000000 1.000000
vn 0.866026 0.000000 0.500000
vn 0.866026 0.000000 0.500000
vn 0.866026 0.000000 0.500000
vn 0.866026 0.000000 0.500000
vn 0.866026 0.000000 0.500000
vn 0.866026 0.000000 0.500000
vn 0.866025 0.000000 -0.500000
vn 0.866025 0.000000 -0.500000
vn 0.866025 0.000000 -0.500000
vn 0.866025 0.000000 -0.500000
vn 0.866025 0.000000 -0.500000
vn 0.866025 0.000000 -0.500000
vn -0.000000 0.000000 -1.000000
vn -0.000000 0.000000 -1.000000
vn -0.000000 0.000000 -1.000000
vn -0.000000 0.000000 -1.000000
vn -0.000000 0.000000 -1.000000
vn -0.000000 0.000000 -1.000000
vn -0.866026 0.000000 -0.500000
vn -0.866026 0.000000 -0.500000
vn -0.866026 0.000000 -0.500000
vn -0.866026 0.000000 -0.500000
vn -0.866026 0.000000 -0.500000
vn -0.866026 0.000000 -0.500000
vn -0.866025 0.000000 0.500000
vn -0.866025 0.000000 0.500000
vn -0.866025 0.000000 0.500000
vn -0.866025 0.000000 0.500000
vn -0.866025 0.000000 0.500000
vn -0.866025 0.000000 0.500000
vn 0.000000 1.000000 0.000000
vn 0.000000 1.000000 0.000000
vn 0.000000 1.000000 0.000000
vn 0.000000 1.000000 0.000000
vn 0.000000 1.000000 0.000000
vn 0.000000 1.000000 0.000000
vn 0.000000 1.000000 0.000000
vn 0.000000 1.000000 0.000000
vn 0.000000 1.000000 0.000000
vn 0.000000 1.000000 0.000000
vn 0.000000 1.000000 0.000000
vn 0.000000 1.000000 0.000000
vn -0.000000 0.662331 -0.749211
vn -0.000000 0.662331 -0.749211
vn -0.000000 0.662331 -0.749211
vn -0.000000 0.662331 -0.749211
vn -0.000000 0.662331 -0.749211
vn -0.000000 0.662331 -0.749211
vn -0.648836 0.662332 -0.374605
vn -0.648836 0.662332 -0.374605
vn -0.648836 0.662332 -0.374605
vn -0.648836 0.662332 -0.374605
vn -0.648836 0.662332 -0.374605
vn -0.648836 0.662332 -0.374605
vn -0.648836 0.662331 0.374606
vn -0.648836 0.662331 0.374606
vn -0.648836 0.662331 0.374606
vn -0.648836 0.662331 0.374606
vn -0.648836 0.662331 0.374606
vn -0.648836 0.662331 0.374606
vn 0.000000 0.662331 0.749211
vn 0.000000 0.662331 0.749211
vn 0.000000 0.662331 0.749211
vn 0.000000 0.662331 0.749211
vn 0.000000 0.662331 0.749211
vn 0.000000 0.662331 0.749211
vn 0.648836 0.662332 0.374605
vn 0.648836 0.662332 0.374605
vn 0.648836 0.662332 0.374605
vn 0.648836 0.662332 0.374605
vn 0.648836 0.662332 0.374605
vn 0.648836 0.662332 0.374605
vn 0.648836 0.662331 -0.374606
vn 0.648836 0.662331 -0.374606
vn 0.648836 0.662331 -0.374606
vn 0.648836 0.662331 -0.374606
vn 0.648836 0.662331 -0.374606
vn 0.648836 0.662331 -0.374606
vn -0.986394 0.000000 -0.164399
vn -0.986394 0.000000 -0.164399
vn -0.986394 0.000000 -0.164399
vn -0.986394 0.000000 -0.164399
vn -0.986394 0.000000 -0.164399
vn -0.986394 0.000000 -0.164399
vn 0.986394 0.000000 -0.164399
vn 0.986394 0.000000 -0.164399
vn 0.986394 0.000000 -0.164399
vn 0.986394 0.000000 -0.164399
vn 0.986394 0.000000 -0.164399
vn 0.986394 0.000000 -0.164399
vn -0.000000 0.986394 -0.164399
vn -0.000000 0.986394 -0.164399
vn -0.000000 0.986394 -0.164399
vn -0.000000 0.986394 -0.164399
vn -0.000000 0.986394 -0.164399
vn -0.000000 0.986394 -0.164399
vn -0.000000 0.000000 -1.000000
vn -0.000000 0.000000 -1.000000
vn -0.000000 0.000000 -1.000000
vn -0.000000 0.000000 -1.000000
vn -0.000000 0.000000 -1.000000
vn -0.000000 0.000000 -1.000000
vn 0.000000 0.000000 1.000000
vn 0.000000 0.000000 1.000000
vn 0.000000 0.000000 1.000000
vn 0.000000 0.000000 1.000000
vn 0.000000 0.000000 1.000000
vn 0.000000 0.000000 1.000000
vn -0.948222 0.000000 0.317607
vn -0.948222 0.000000 0.317607
vn -0.948222 0.000000 0.317607
vn -0.948222 0.000000 0.317607
vn -0.948222 0.000000 0.317607
vn -0.948222 0.000000 0.317607
vn 0.000000 -0.996194 0.087167
vn 0.000000 -0.996194 0.087167
vn 0.000000 -0.996194 0.087167
vn 0.000000 -0.996194 0.087167
vn 0.000000 -0.996194 0.087167
vn 0.000000 -0.996194 0.087167
vn 0.948222 0.000000 0.317607
vn 0.948222 0.000000 0.317607
vn 0.948222 0.000000 0.317607
vn 0.948222 0.000000 0.317607
vn 0.948222 0.000000 0.317607
vn 0.948222 0.000000 0.317607
vn 0.000000 0.996194 0.087167
vn 0.000000 0.996194 0.087167
vn 0.000000 0.996194 0.087167
vn 0.000000 0.996194 0.087167
vn 0.000000 0.996194 0.087167
vn 0.000000 0.996194 0.087167
vn -0.866025 0.000000 0.500000
vn -0.866025 0.000000 0.500000
vn -0.866025 0.000000 0.500000
vn -0.866025 0.000000 0.500000
vn -0.866025 0.000000 0.500000
vn -0.866025 0.000000 0.500000
vn -0.866025 0.000000 0.500000
vn -0.866025 0.000000 0.500000
vn -0.866025 0.000000 0.500000
vn -0.866026 0.000000 -0.500000
vn -0.866026 0.000000 -0.500000
vn -0.866026 0.000000 -0.500000
vn -0.866026 0.000000 -0.500000
vn -0.866026 0.000000 -0.500000
vn -0.866026 0.000000 -0.500000
vn -0.866026 0.000000 -0.500000
vn -0.866026 0.000000 -0.500000
vn -0.866026 0.000000 -0.500000
vn -0.000000 0.000000 -1.000000
vn -0.000000 0.000000 -1.000000
vn -0.000000 0.000000 -1.000000
vn -0.000000 0.000000 -1.000000
vn -0.000000 0.000000 -1.000000
vn -0.000000 0.000000 -1.000000
vn 0.866025 0.000000 -0.500000
vn 0.866025 0.000000 -0.500000
vn 0.866025 0.000000 -0.500000
vn 0.866025 0.000000 -0.500000
vn 0.866025 0.000000 -0.500000
vn 0.866025 0.000000 -0.500000
vn 0.866025 0.000000 -0.500000
vn 0.866025 0.000000 -0.500000
vn 0.866025 0.000000 -0.500000
vn 0.866026 0.000000 0.500000
vn 0.866026 0.000000 0.500000
vn 0.866026 0.000000 0.500000
vn 0.866026 0.000000 0.500000
vn 0.866026 0.000000 0.500000
vn 0.866026 0.000000 0.500000
vn 0.866026 0.000000 0.500000
vn 0.866026 0.000000 0.500000
vn 0.866026 0.000000 0.500000
vn 0.000000 -1.000000 0.000000
vn 0.000000 -1.000000 0.000000
vn 0.000000 -1.000000 0.000000
vn 0.000000 -1.000000 0.000000
vn 0.000000 -1.000000 0.000000
vn 0.000000 -1.000000 0.000000
vn 0.000000 -1.000000 0.000000
vn 0.000000 -1.000000 0.000000
vn 0.000000 -1.000000 0.000000
vn 0.000000 -1.000000 0.000000
vn 0.000000 -1.000000 0.000000
vn 0.000000 -1.000000 0.000000
vn 0.000000 -1.000000 0.000000
vn 0.000000 -1.000000 0.000000
vn 0.000000 -1.000000 0.000000
vn 0.000000 -1.000000 0.000000
vn 0.000000 -1.000000 0.000000
vn 0.000000 -1.000000 0.000000
vn 0.000000 0.000000 1.000000
vn 0.000000 0.000000 1.000000
vn 0.000000 0.000000 1.000000
vn 0.000000 0.000000 1.000000
vn 0.000000 0.000000 1.000000
vn 0.000000 0.000000 1.000000
vn 0.000000 0.000000 1.000000
vn 0.000000 0.000000 1.000000
vn 0.000000 0.000000 1.000000
vn 0.000000 0.000000 1.000000
vn 0.000000 0.000000 1.000000
vn 0.000000 0.000000 1.000000
vn 0.866026 0.000000 0.500000
vn 0.866026 0.000000 0.500000
vn 0.866026 0.000000 0.500000
vn 0.866026 0.000000 0.500000
vn 0.866026 0.000000 0.500000
vn 0.866026 0.000000 0.500000
vn 0.866025 0.000000 -0.500000
vn 0.866025 0.000000 -0.500000
vn 0.866025 0.000000 -0.500000
vn 0.866025 0.000000 -0.500000
vn 0.866025 0.000000 -0.500000
vn 0.866025 0.000000 -0.500000
vn -0.000000 0.000000 -1.000000
vn -0.000000 0.000000 -1.000000
vn -0.000000 0.000000 -1.000000
vn -0.000000 0.000000 -1.000000
vn -0.000000 0.000000 -1.000000
vn -0.000000 0.000000 -1.000000
vn -0.866026 0.000000 -0.500000
vn -0.866026 0.000000 -0.500000
vn -0.866026 0.000000 -0.500000
vn -0.866026 0.000000 -0.500000
vn -0.866026 0.000000 -0.500000
vn -0.866026 0.000000 -0.500000
vn -0.866025 0.000000 0.500000
vn -0.866025 0.000000 0.500000
vn -0.866025 0.000000 0.500000
vn -0.866025 0.000000 0.500000
vn -0.866025 0.000000 0.500000
vn -0.866025 0.000000 0.500000
vn 0.000000 1.000000 0.000000
vn 0.000000 1.000000 0.000000
vn 0.000000 1.000000 0.000000
vn 0.000000 1.000000 0.000000
vn 0.000000 1.000000 0.000000
vn 0.000000 1.000000 0.000000
vn 0.000000 1.000000 0.000000
vn 0.000000 1.000000 0.000000
vn 0.000000 1.000000 0.000000
vn 0.000000 1.000000 0.000000
vn 0.000000 1.000000 0.000000
vn 0.000000 1.000000 0.000000
vn -0.000000 0.662331 -0.749211
vn -0.000000 0.662331 -0.749211
vn -0.000000 0.662331 -0.749211
vn -0.000000 0.662331 -0.749211
vn -0.000000 0.662331 -0.749211
vn -0.000000 0.662331 -0.749211
vn -0.648836 0.662332 -0.374605
vn -0.648836 0.662332 -0.374605
vn -0.648836 0.662332 -0.374605
vn -0.648836 0.662332 -0.374605
vn -0.648836 0.662332 -0.374605
vn -0.648836 0.662332 -0.374605
vn -0.648836 0.662331 0.374606
vn -0.648836 0.662331 0.374606
vn -0.648836 0.662331 0.374606
vn -0.648836 0.662331 0.374606
vn -0.648836 0.662331 0.374606
vn -0.648836 0.662331 0.374606
vn 0.000000 0.662331 0.749211
vn 0.000000 0.662331 0.749211
vn 0.000000 0.662331 0.749211
vn 0.000000 0.662331 0.749211
vn 0.000000 0.662331 0.749211
vn 0.000000 0.662331 0.749211
vn 0.648836 0.662332 0.374605
vn 0.648836 0.662332 0.374605
vn 0.648836 0.662332 0.374605
vn 0.648836 0.662332 0.374605
vn 0.648836 0.662332 0.374605
vn 0.648836 0.662332 0.374605
vn 0.648836 0.662331 -0.374606
vn 0.648836 0.662331 -0.374606
vn 0.648836 0.662331 -0.374606
vn 0.648836 0.662331 -0.374606
vn 0.648836 0.662331 -0.374606
vn 0.648836 0.662331 -0.374606
vn -0.986394 0.000000 -0.164399
vn -0.986394 0.000000 -0.164399
vn -0.986394 0.000000 -0.164399
vn -0.986394 0.000000 -0.164399
vn -0.986394 0.000000 -0.164399
vn -0.986394 0.000000 -0.164399
vn 0.986394 0.000000 -0.164399
vn 0.986394 0.000000 -0.164399
vn 0.986394 0.000000 -0.164399
vn 0.986394 0.000000 -0.164399
vn 0.986394 0.000000 -0.164399
vn 0.986394 0.000000 -0.164399
vn -0.000000 0.986394 -0.164399
vn -0.000000 0.986394 -0.164399
vn -0.000000 0.986394 -0.164399
vn -0.000000 0.986394 -0.164399
vn -0.000000 0.986394 -0.164399
vn -0.000000 0.986394 -0.164399
vn -0.000000 0.000000 -1.000000
vn -0.000000 0.000000 -1.000000
vn -0.000000 0.000000 -1.000000
vn -0.000000 0.000000 -1.000000
vn -0.000000 0.000000 -1.000000
vn -0.000000 0.000000 -1.000000
vn 0.000000 0.000000 1.000000
vn 0.000000 0.000000 1.000000
vn 0.000000 0.000000 1.000000
vn 0.000000 0.000000 1.000000
vn 0.000000 0.000000 1.000000
vn 0.000000 0.000000 1.000000
vn -0.948222 0.000000 0.317607
vn -0.948222 0.000000 0.317607
vn -0.948222 0.000000 0.317607
vn -0.948222 0.000000 0.317607
vn -0.948222 0.000000 0.317607
vn -0.948222 0.000000 0.317607
vn 0.000000 -0.996194 0.087167
vn 0.000000 -0.996194 0.087167
vn 0.000000 -0.996194 0.087167
vn 0.000000 -0.996194 0.087167
vn 0.000000 -0.996194 0.087167
vn 0.000000 -0.996194 0.087167
vn 0.948222 0.000000 0.317607
vn 0.948222 0.000000 0.317607
vn 0.948222 0.000000 0.317607
vn 0.948222 0.000000 0.317607
vn 0.948222 0.000000 0.317607
vn 0.948222 0.000000 0.317607
vn 0.000000 0.996194 0.087167
vn 0.000000 0.996194 0.087167
vn 0.000000 0.996194 0.087167
vn 0.000000 0.996194 0.087167
vn 0.000000 0.996194 0.087167
vn 0.000000 0.996194 0.087167
s off
g trashcan:trashcan
usemtl trashcan:metal
f 2/1/1 1/2/2 3/3/3
f 3/3/4 4/4/5 2/1/6
f 3/3/7 5/5/8 4/4/9
f 6/6/10 2/7/11 4/71/12
f 4/72/13 7/8/14 6/6/15
f 4/73/16 8/74/17 7/8/18
f 7/9/19 8/75/20 9/76/21
f 9/77/22 10/78/23 7/9/24
f 12/79/25 11/10/26 13/80/27
f 13/81/28 10/82/29 12/83/30
f 10/84/31 9/85/32 12/86/33
f 14/11/34 11/12/35 12/87/36
f 12/88/37 15/13/38 14/11/39
f 12/89/40 16/90/41 15/13/42
f 6/14/43 17/15/44 18/16/45
f 18/16/46 13/17/47 6/14/48
f 13/17/49 2/18/50 6/14/51
f 13/17/52 11/19/53 2/18/54
f 11/19/55 14/20/56 2/18/57
f 14/20/58 1/21/59 2/18/60
f 3/91/61 1/92/62 14/22/63
f 14/22/64 15/93/65 3/94/66
usemtl trashcan:metalDark
f 19/23/67 5/95/68 16/96/69
f 16/97/70 20/24/71 19/23/72
f 16/98/73 12/99/74 21/100/75
f 21/101/76 20/102/77 16/103/78
f 12/104/79 9/105/80 22/106/81
f 22/107/82 21/108/83 12/109/84
f 8/110/85 23/111/86 22/112/87
f 22/113/88 9/114/89 8/115/90
f 8/116/91 4/117/92 24/118/93
f 24/119/94 23/120/95 8/121/96
f 4/4/97 5/5/98 19/122/99
f 19/123/100 24/124/101 4/4/102
f 26/25/103 25/26/104 27/27/105
f 27/27/106 28/28/107 26/25/108
f 28/28/109 29/29/110 26/25/111
f 28/28/112 30/30/113 29/29/114
f 22/31/115 23/32/116 27/33/117
f 27/33/118 25/34/119 22/31/120
f 27/125/121 23/126/122 24/127/123
f 24/128/124 28/129/125 27/130/126
f 30/131/127 28/132/128 24/133/129
f 24/134/130 19/135/131 30/136/132
f 30/137/133 19/138/134 20/139/135
f 20/140/136 29/141/137 30/142/138
f 21/143/139 26/144/140 29/145/141
f 29/146/142 20/147/143 21/148/144
f 21/149/145 22/150/146 25/151/147
f 25/152/148 26/153/149 21/154/150
f 17/35/151 6/36/152 7/37/153
f 7/37/154 31/38/155 17/35/156
f 13/39/157 18/40/158 32/41/159
f 32/41/160 10/42/161 13/39/162
f 32/43/163 31/44/164 7/45/165
f 7/45/166 10/46/167 32/43/168
f 17/47/169 31/48/170 32/49/171
f 32/49/172 18/50/173 17/47/174
f 34/51/175 33/52/176 35/53/177
f 35/53/178 36/54/179 34/51/180
f 5/55/181 3/56/182 33/57/183
f 33/57/184 34/58/185 5/55/186
f 3/59/187 15/60/188 35/61/189
f 35/61/190 33/62/191 3/59/192
f 35/63/193 15/64/194 16/65/195
f 16/65/196 36/66/197 35/63/198
f 36/67/199 16/68/200 5/69/201
f 5/69/202 34/70/203 36/67/204
usemtl trashcan:metal
f 2/1/205 1/2/206 3/3/207
f 3/3/208 4/4/209 2/1/210
f 3/3/211 5/5/212 4/4/213
f 6/6/214 2/7/215 4/155/216
f 4/156/217 7/8/218 6/6/219
f 4/157/220 8/158/221 7/8/222
f 7/9/223 8/159/224 9/160/225
f 9/161/226 10/162/227 7/9/228
f 12/163/229 11/10/230 13/164/231
f 13/165/232 10/166/233 12/167/234
f 10/168/235 9/169/236 12/170/237
f 14/11/238 11/12/239 12/171/240
f 12/172/241 15/13/242 14/11/243
f 12/173/244 16/174/245 15/13/246
f 6/14/247 17/15/248 18/16/249
f 18/16/250 13/17/251 6/14/252
f 13/17/253 2/18/254 6/14/255
f 13/17/256 11/19/257 2/18/258
f 11/19/259 14/20/260 2/18/261
f 14/20/262 1/21/263 2/18/264
f 3/175/265 1/176/266 14/22/267
f 14/22/268 15/177/269 3/178/270
usemtl trashcan:metalDark
f 19/23/271 5/179/272 16/180/273
f 16/181/274 20/24/275 19/23/276
f 16/182/277 12/183/278 21/184/279
f 21/185/280 20/186/281 16/187/282
f 12/188/283 9/189/284 22/190/285
f 22/191/286 21/192/287 12/193/288
f 8/194/289 23/195/290 22/196/291
f 22/197/292 9/198/293 8/199/294
f 8/200/295 4/201/296 24/202/297
f 24/203/298 23/204/299 8/205/300
f 4/4/301 5/5/302 19/206/303
f 19/207/304 24/208/305 4/4/306
f 26/25/307 25/26/308 27/27/309
f 27/27/310 28/28/311 26/25/312
f 28/28/313 29/29/314 26/25/315
f 28/28/316 30/30/317 29/29/318
f 22/31/319 23/32/320 27/33/321
f 27/33/322 25/34/323 22/31/324
f 27/209/325 23/210/326 24/211/327
f 24/212/328 28/213/329 27/214/330
f 30/215/331 28/216/332 24/217/333
f 24/218/334 19/219/335 30/220/336
f 30/221/337 19/222/338 20/223/339
f 20/224/340 29/225/341 30/226/342
f 21/227/343 26/228/344 29/229/345
f 29/230/346 20/231/347 21/232/348
f 21/233/349 22/234/350 25/235/351
f 25/236/352 26/237/353 21/238/354
f 17/35/355 6/36/356 7/37/357
f 7/37/358 31/38/359 17/35/360
f 13/39/361 18/40/362 32/41/363
f 32/41/364 10/42/365 13/39/366
f 32/43/367 31/44/368 7/45/369
f 7/45/370 10/46/371 32/43/372
f 17/47/373 31/48/374 32/49/375
f 32/49/376 18/50/377 17/47/378
f 34/51/379 33/52/380 35/53/381
f 35/53/382 36/54/383 34/51/384
f 5/55/385 3/56/386 33/57/387
f 33/57/388 34/58/389 5/55/390
f 3/59/391 15/60/392 35/61/393
f 35/61/394 33/62/395 3/59/396
f 35/63/397 15/64/398 16/65/399
f 16/65/400 36/66/401 35/63/402
f 36/67/403 16/68/404 5/69/405
f 5/69/406 34/70/407 36/67/408
